<svg id="Capa_1" data-name="Capa 1" xmlns="http://www.w3.org/2000/svg" viewBox="0 0 456.34 456.33">
  <title>ico-play-circled-1</title>
  <g>
    <path d="M195.15,337.83a13.61,13.61,0,0,1-5.69-1.26,13.44,13.44,0,0,1-7.73-12.16V131.94a13.42,13.42,0,0,1,22-10.32l115.49,96.23a13.44,13.44,0,0,1,0,20.64L203.75,334.72A13.4,13.4,0,0,1,195.15,337.83ZM208.59,160.6V295.74l81.08-67.57Z" transform="translate(0 0)"/>
    <path d="M227.77,456.34a227,227,0,0,1-111.52-29.15,13.43,13.43,0,0,1,13.18-23.4c78.35,44.1,177.52,30.47,241.16-33.2,78.54-78.53,78.54-206.31,0-284.84s-206.32-78.54-284.85,0-78.53,206.31,0,284.84a13.43,13.43,0,1,1-19,19c-89-89-89-233.83,0-322.84s233.82-89,322.84,0,89,233.83,0,322.84A228.8,228.8,0,0,1,227.77,456.34Z" transform="translate(0 0)"/>
  </g>
</svg>
