<svg xmlns="http://www.w3.org/2000/svg" viewBox="0 0 24 20">
  <title>ico-send-msg</title>
  <path d="M12,0C5.38,0,0,3.81,0,8.5c0,2.39,1.42,4.66,3.9,6.27a5.65,5.65,0,0,1-2.63,4.28.52.52,0,0,0-.26.57A.51.51,0,0,0,1.5,20a17,17,0,0,0,9-3.08A13.63,13.63,0,0,0,12,17c6.62,0,12-3.81,12-8.5S18.62,0,12,0Zm0,16a15.87,15.87,0,0,1-1.59-.09.53.53,0,0,0-.35.09,16.34,16.34,0,0,1-7,2.84,7.37,7.37,0,0,0,1.84-4.27.5.5,0,0,0-.24-.48C2.35,12.66,1,10.62,1,8.5,1,4.36,5.93,1,12,1S23,4.36,23,8.5,18.07,16,12,16Z"/>
</svg>
