<svg id="Capa_1" data-name="Capa 1" xmlns="http://www.w3.org/2000/svg" viewBox="0 0 482.13 482.13">
  <title>ico-link</title>
  <path d="M455.48,198.18,326.83,326.83a90.94,90.94,0,0,1-128.65,0L155.3,284l42.88-42.88L241.07,284A30.34,30.34,0,0,0,284,284L412.6,155.3a30.4,30.4,0,0,0,0-42.9L369.72,69.52a30.39,30.39,0,0,0-42.89,0L280.9,115.46a120.6,120.6,0,0,0-69.45-16.29L284,26.64a91,91,0,0,1,128.65,0l42.88,42.88A91,91,0,0,1,455.48,198.18ZM201.21,366.7,155.3,412.6a30.35,30.35,0,0,1-42.88,0L69.54,369.72a30.32,30.32,0,0,1,0-42.89L198.18,198.18a30.39,30.39,0,0,1,42.89,0L284,241.07l42.88-42.89L284,155.3a91,91,0,0,0-128.65,0L26.66,284a90.94,90.94,0,0,0,0,128.65l42.88,42.88a90.93,90.93,0,0,0,128.64,0l72.5-72.5A121.21,121.21,0,0,1,201.21,366.7Z" transform="translate(0 0)"/>
</svg>
