<svg id="Layer_1" data-name="Layer 1" xmlns="http://www.w3.org/2000/svg" viewBox="0 0 494.1 489.19">
  <title>ico-shops</title>
  <g>
    <path d="M19.6,255.69l22.2,183.6a56.65,56.65,0,0,0,56.3,49.9H395.7a56.72,56.72,0,0,0,56.3-49.9l22.2-183.6a7.73,7.73,0,0,0-7.7-8.7H27.3A7.78,7.78,0,0,0,19.6,255.69Zm97.6,188.6a9.82,9.82,0,0,1-9.8,9.8H85.6a9.82,9.82,0,0,1-9.8-9.8V292a9.82,9.82,0,0,1,9.8-9.8h21.9a9.82,9.82,0,0,1,9.8,9.8v152.3Zm75.2,0a9.82,9.82,0,0,1-9.8,9.8H160.7a9.82,9.82,0,0,1-9.8-9.8V292a9.82,9.82,0,0,1,9.8-9.8h21.9a9.82,9.82,0,0,1,9.8,9.8Zm75.2,0a9.82,9.82,0,0,1-9.8,9.8H235.9a9.82,9.82,0,0,1-9.8-9.8V292a9.82,9.82,0,0,1,9.8-9.8h21.9a9.82,9.82,0,0,1,9.8,9.8Zm75.1,0a9.82,9.82,0,0,1-9.8,9.8H311a9.82,9.82,0,0,1-9.8-9.8V292a9.82,9.82,0,0,1,9.8-9.8h22a9.82,9.82,0,0,1,9.8,9.8v152.3Zm75.2,0a9.82,9.82,0,0,1-9.8,9.8H386.2a9.82,9.82,0,0,1-9.8-9.8V292a9.82,9.82,0,0,1,9.8-9.8h21.9a9.82,9.82,0,0,1,9.8,9.8Z"/>
    <g>
      <path d="M90.2,176.19"/>
      <path d="M484.3,176.19H433.59L288.9,19.89a17,17,0,0,0-7.2-17,17.08,17.08,0,1,0-8,31.1l131.64,142.2H88.66L220.3,34a17.08,17.08,0,1,0-15.2-14.1L60.41,176.19H9.8A9.82,9.82,0,0,0,0,186v24a9.82,9.82,0,0,0,9.8,9.8H484.3a9.82,9.82,0,0,0,9.8-9.8V186A9.82,9.82,0,0,0,484.3,176.19Z"/>
    </g>
  </g>
</svg>
