<svg id="Layer_1" data-name="Layer 1" xmlns="http://www.w3.org/2000/svg" viewBox="0 0 476.8 506.36">
  <title>ico-google+</title>
  <g>
    <path d="M0,405.18c.6-25.4,10.3-48.7,27.4-69.2,18.4-22.1,42-36,69.5-43.4,11.1-3,22.4-5.2,34-4.8,3.1.1,4.8-.2,3.2-4-5.3-12.3-6.2-25.1-4-38.2.5-2.9-.6-3.6-3.4-3.8-39.1-3.1-66.7-23.3-84.6-57.4a127.32,127.32,0,0,1-14.6-66c1-24,9-45.9,23.1-65.4A126.81,126.81,0,0,1,93,15.28c15.6-8.5,32.1-14.2,49.8-14.4,43-.3,107.1,0,150.3,0,5.6,0,8.9,2.7,10.9,7.8s.5,9.5-3,12.8c-9.6,8.7-40.5,17.1-50.5,25.4-2.9,2.5-6.8,1.2-10.2,1.3s-5.2.3-2.7,4.3c11,17.4,15.9,36.7,17.6,57,1.6,18.2.1,35.9-6.3,53a122.81,122.81,0,0,1-28.5,44c-7.5,7.6-16.7,13.9-21.7,23.9-3.7,7.4-3.9,14.4.8,21.7,7.8,12.2,17.9,22.2,28.8,31.5,25.2,21.3,41,47.6,43.8,81.1,1.7,20.6,2,40.9-5.2,60.6-9.6,26.4-26.7,46.8-50.9,61.2-21.3,12.7-44.4,18.7-69.2,19.7-30.6,1.2-60.1-3.3-87.8-16.3-24.5-11.5-44.3-28.1-54.2-54.4C1.5,426.28,0,416.58,0,405.18Zm141.8,53.9c15.4-.2,30.6-1.9,44.8-8.2,11.7-5.2,21.2-13,27.3-24.5,5.6-10.6,7.1-22.1,7.1-33.8,0-12.1-3.3-23.2-11.9-32.4-8.1-8.7-17.4-15.8-26.3-23.5-5.4-4.7-11-8.7-18.2-9.6-8.4-1.1-16.7-2.2-25.3-1.5-22.7,2-41.9,10.5-57.7,27.1-23.1,24.3-19.9,58.1-.6,80.7C96.9,452,117.8,459.38,141.8,459.08ZM191.3,143c0-22.7-4.7-42.4-14.6-61.1-6.9-13-15.9-24.1-28.9-31.6-14.7-8.5-32.2-5.3-42.5,8.1a60.78,60.78,0,0,0-11.2,25.3A118.24,118.24,0,0,0,96.5,141c6,20.5,15.2,39.4,32.4,53.2,7.6,6.1,16.2,10,26.1,9.2,14.7-1.2,23.1-10.8,28.7-23.2A79.93,79.93,0,0,0,191.3,143Z"/>
    <path d="M354.2,52.38v-39c0-7.7,3.5-11.6,11-12.7a68.3,68.3,0,0,1,16.9-.3c9.4.8,12.7,4.8,12.8,14.3v65a110.3,110.3,0,0,1-.1,11.5c-.4,4.5,1,6,5.7,5.9,20.7-.3,41.3-.1,62-.1,9.9,0,14.2,4.3,14.3,14.3v20c-.1,9.3-4.3,13.5-13.4,13.6-21,0-42,.1-63-.1-4.3,0-5.7,1-5.7,5.5.2,25.7.1,51.3.1,77,0,4.8-.8,9.3-5.1,12.4-.4.3-.8.8-1.2.9-9.8,1.7-19.8,3.1-29.3-.9-4.1-1.7-5.2-6.4-5.2-11.1.1-25.8-.1-51.7.1-77.5,0-4.8-1.3-6.3-6.2-6.3-20.8.2-41.7.1-62.5.1-9.1,0-13.2-4-13.3-13-.1-7.2-.1-14.3,0-21.5.2-9.4,4.2-13.3,13.5-13.4,21,0,42-.1,63,.1,4,0,5.5-.9,5.4-5.2C354,78.68,354.2,65.58,354.2,52.38Z"/>
  </g>
</svg>
