<svg xmlns="http://www.w3.org/2000/svg" viewBox="0 0 438.53 438.54">
  <title>ico-social-insta</title>
  <path d="M422,16.56Q405.42,0,382.3,0h-326Q33.12,0,16.56,16.56T0,56.24V382.29Q0,405.41,16.56,422t39.69,16.57h326q23.11,0,39.69-16.57t16.56-39.68v-326Q438.53,33.13,422,16.56ZM157.46,158q25.85-25,62.1-25,36.54,0,62.38,25t25.84,60.39q0,35.4-25.84,60.38t-62.38,25q-36.26,0-62.1-25t-25.84-60.38Q131.62,183,157.46,158Zm231.4,212.57A16.64,16.64,0,0,1,383.72,383a17,17,0,0,1-12.28,5H66.24a17.07,17.07,0,0,1-17.42-17.41v-185H89.08A123.18,123.18,0,0,0,83.37,223q0,54.82,40,93.51t96.22,38.68a137.28,137.28,0,0,0,68.53-17.7,133.38,133.38,0,0,0,49.67-48.11A126.53,126.53,0,0,0,356,223a122.77,122.77,0,0,0-5.72-37.4h38.55v185Zm0-255a19.5,19.5,0,0,1-19.7,19.7H319.48a19.48,19.48,0,0,1-19.69-19.7V68.52a19.2,19.2,0,0,1,5.7-13.85,18.82,18.82,0,0,1,14-5.85h49.68a18.8,18.8,0,0,1,14,5.85,19.17,19.17,0,0,1,5.71,13.85Z" transform="translate(0)"/>
</svg>
