<svg id="Layer_1" data-name="Layer 1" xmlns="http://www.w3.org/2000/svg" viewBox="0 0 53 31">
  <title>ico-edu</title>
  <path d="M41.06,17.47s-5.77-5.93-13.73-5.93c-7.78,0-15.47,5.93-15.47,5.93L7.54,15.66V21a1.71,1.71,0,0,1,0,3.26l1.27,3.58H5l1.28-3.62a1.74,1.74,0,0,1,0-3.18v-5.9L0,12.49,27.64,0,53,12.65ZM27,14.55c8,0,11.94,4.27,11.94,4.27v8.85S34.86,31,26.38,31s-11.3-3.33-11.3-3.33V18.82S19,14.55,27,14.55ZM26.85,29.1c5.55,0,10.06-1.14,10.06-2.53S32.4,24,26.85,24s-10,1.13-10,2.53S21.3,29.1,26.85,29.1Z" transform="translate(0 0)" fill-rule="evenodd"/>
</svg>
