<?xml version="1.0" encoding="iso-8859-1"?>
<!-- Generator: Adobe Illustrator 22.1.0, SVG Export Plug-In . SVG Version: 6.00 Build 0)  -->
<svg version="1.1" id="Layer_1" xmlns="http://www.w3.org/2000/svg" xmlns:xlink="http://www.w3.org/1999/xlink" x="0px" y="0px"
	 viewBox="0 0 50 50" style="enable-background:new 0 0 50 50;" xml:space="preserve">
<g id="Layer_1_1_">
	<path d="M16.117,31l-2,16H10v2h3.867h22.266H40v-2h-4.117l-2-16H26v-8.004l7.707,3.742l-1.482-9.294l6.906-6.718l-9.679-1.522
		l-4.451-8.325L20.55,9.204l-9.679,1.522l6.906,6.718l-1.482,9.294l7.707-3.742V31H16.117z M15.13,12.081l6.712-1.055l3.157-5.905
		l3.157,5.905l6.712,1.055l-4.784,4.653l1.041,6.528l-6.126-2.975l-6.126,2.975l1.041-6.528L15.13,12.081z M33.867,47H16.133
		l1.75-14h14.234L33.867,47z"/>
	<path d="M25,44c2.206,0,4-1.794,4-4s-1.794-4-4-4s-4,1.794-4,4S22.794,44,25,44z M25,38c1.103,0,2,0.897,2,2s-0.897,2-2,2
		s-2-0.897-2-2S23.897,38,25,38z"/>
</g>
</svg>
