<?xml version="1.0" encoding="iso-8859-1"?>
<!-- Generator: Adobe Illustrator 22.1.0, SVG Export Plug-In . SVG Version: 6.00 Build 0)  -->
<svg version="1.1" id="Layer_1" xmlns="http://www.w3.org/2000/svg" xmlns:xlink="http://www.w3.org/1999/xlink" x="0px" y="0px"
	 viewBox="0 0 50 50" style="enable-background:new 0 0 50 50;" xml:space="preserve">
<g id="Layer_1_1_">
	<path d="M12.461,31.97L24,48.317V49h2v-0.683L37.539,31.97C43.905,31.662,49,25.971,49,19c0-7.168-5.383-13-12-13
		c-0.776,0-1.567,0.116-2.36,0.292C32.452,3.09,28.951,1,25,1s-7.453,2.089-9.64,5.292C14.568,6.117,13.777,6,13,6
		C6.383,6,1,11.832,1,19C1,25.971,6.095,31.662,12.461,31.97z M14.813,31.835c3.107-0.513,5.896-2.329,7.794-5.096
		c0.455,0.1,0.921,0.163,1.392,0.206v17.904L14.813,31.835z M26,26.945c0.472-0.042,0.938-0.106,1.392-0.206
		c1.898,2.766,4.687,4.583,7.794,5.096L26,44.849V26.945z M35.691,8.101C36.132,8.034,36.569,8,37,8c5.514,0,10,4.935,10,11
		s-4.486,11-10,11c-2.964,0-5.741-1.438-7.633-3.902c0.009-0.004,0.018-0.009,0.027-0.013c0.225-0.096,0.444-0.201,0.662-0.312
		c0.101-0.051,0.201-0.103,0.301-0.157c0.191-0.104,0.381-0.21,0.567-0.324c0.13-0.08,0.255-0.167,0.381-0.251
		c0.21-0.142,0.418-0.286,0.619-0.441c0.205-0.157,0.408-0.319,0.603-0.489c0.116-0.102,0.227-0.21,0.34-0.317
		c0.151-0.142,0.3-0.287,0.444-0.437c0.109-0.114,0.216-0.23,0.322-0.348c0.144-0.162,0.282-0.328,0.417-0.497
		c0.092-0.114,0.185-0.225,0.273-0.343c0.202-0.27,0.395-0.548,0.577-0.835c0.076-0.12,0.144-0.247,0.217-0.37
		c0.112-0.191,0.223-0.383,0.326-0.581c0.078-0.149,0.151-0.3,0.223-0.452c0.089-0.188,0.174-0.379,0.255-0.572
		c0.064-0.152,0.128-0.302,0.187-0.457c0.106-0.28,0.202-0.566,0.289-0.855c0.045-0.148,0.085-0.298,0.125-0.448
		c0.072-0.269,0.138-0.54,0.194-0.815c0.028-0.14,0.052-0.281,0.076-0.423c0.045-0.26,0.081-0.523,0.111-0.788
		c0.014-0.128,0.03-0.256,0.041-0.385C36.978,14.795,37,14.4,37,14c0-0.489-0.03-0.97-0.079-1.445
		c-0.015-0.142-0.041-0.28-0.059-0.421c-0.045-0.336-0.096-0.67-0.165-0.997c-0.033-0.16-0.074-0.317-0.113-0.476
		c-0.076-0.308-0.16-0.612-0.256-0.91c-0.05-0.157-0.102-0.312-0.158-0.466c-0.11-0.306-0.233-0.603-0.363-0.897
		C35.765,8.293,35.735,8.194,35.691,8.101z M25,3c3.438,0,6.476,1.919,8.276,4.834l0.03,0.05c0.019,0.032,0.035,0.066,0.054,0.098
		c0.232,0.39,0.435,0.795,0.619,1.209c0.039,0.087,0.078,0.174,0.115,0.262c0.183,0.44,0.344,0.89,0.472,1.351
		c0.011,0.039,0.018,0.081,0.028,0.12c0.112,0.419,0.195,0.847,0.26,1.279c0.018,0.118,0.035,0.236,0.049,0.355
		c0.057,0.476,0.096,0.956,0.096,1.442c0,0.348-0.019,0.692-0.047,1.032c-0.01,0.121-0.027,0.239-0.041,0.359
		c-0.025,0.216-0.053,0.431-0.089,0.643c-0.024,0.141-0.052,0.281-0.081,0.42c-0.039,0.187-0.082,0.371-0.13,0.554
		c-0.037,0.144-0.075,0.289-0.118,0.431c-0.053,0.176-0.113,0.349-0.174,0.521c-0.048,0.137-0.094,0.276-0.147,0.411
		c-0.083,0.211-0.177,0.416-0.272,0.619c-0.084,0.181-0.174,0.359-0.267,0.535c-0.093,0.175-0.186,0.351-0.287,0.52
		c-0.076,0.127-0.159,0.248-0.24,0.371c-0.093,0.141-0.186,0.282-0.284,0.418c-0.09,0.124-0.183,0.245-0.278,0.364
		c-0.099,0.125-0.2,0.247-0.303,0.367c-0.103,0.119-0.207,0.237-0.315,0.351c-0.101,0.107-0.206,0.208-0.31,0.31
		c-0.121,0.117-0.24,0.236-0.366,0.347c-0.079,0.07-0.162,0.133-0.242,0.2c-0.581,0.481-1.209,0.901-1.885,1.237
		c-0.002,0.001-0.004,0.002-0.006,0.003c-0.244,0.121-0.495,0.231-0.75,0.332c-0.012,0.005-0.025,0.01-0.037,0.015
		c-0.257,0.1-0.52,0.189-0.788,0.266C26.729,24.862,25.88,25,25,25s-1.729-0.138-2.542-0.374c-0.268-0.077-0.53-0.167-0.788-0.266
		c-0.012-0.005-0.025-0.01-0.037-0.015c-0.255-0.1-0.506-0.21-0.75-0.332c-0.002-0.001-0.004-0.002-0.006-0.003
		c-0.676-0.336-1.304-0.756-1.885-1.237c-0.081-0.067-0.164-0.13-0.242-0.2c-0.126-0.111-0.245-0.229-0.366-0.347
		c-0.105-0.102-0.209-0.203-0.31-0.31c-0.108-0.114-0.212-0.232-0.315-0.351c-0.104-0.12-0.205-0.242-0.303-0.367
		c-0.095-0.12-0.188-0.24-0.278-0.364c-0.098-0.136-0.192-0.277-0.284-0.418c-0.081-0.123-0.164-0.245-0.24-0.371
		c-0.102-0.169-0.194-0.345-0.287-0.52c-0.093-0.176-0.183-0.353-0.267-0.535c-0.095-0.204-0.188-0.409-0.272-0.619
		c-0.053-0.135-0.099-0.274-0.147-0.411c-0.061-0.172-0.121-0.345-0.174-0.521c-0.043-0.142-0.08-0.286-0.118-0.431
		c-0.047-0.183-0.091-0.367-0.13-0.554c-0.029-0.139-0.057-0.279-0.081-0.42c-0.036-0.212-0.065-0.427-0.089-0.643
		c-0.014-0.12-0.031-0.238-0.041-0.359c-0.029-0.34-0.047-0.683-0.047-1.032c0-0.486,0.039-0.966,0.096-1.442
		c0.014-0.119,0.032-0.236,0.049-0.353c0.065-0.432,0.149-0.861,0.26-1.28c0.01-0.039,0.017-0.081,0.028-0.12
		c0.128-0.461,0.289-0.911,0.472-1.352c0.036-0.088,0.076-0.174,0.115-0.261c0.184-0.414,0.387-0.82,0.62-1.21
		c0.019-0.032,0.035-0.066,0.054-0.098l0.03-0.05C18.524,4.919,21.562,3,25,3z M13,8c0.431,0,0.868,0.034,1.309,0.101
		c-0.044,0.093-0.074,0.192-0.116,0.286c-0.131,0.294-0.253,0.592-0.363,0.897c-0.056,0.155-0.108,0.31-0.158,0.466
		c-0.096,0.299-0.18,0.602-0.256,0.91c-0.039,0.158-0.08,0.316-0.113,0.476c-0.068,0.328-0.12,0.661-0.165,0.997
		c-0.019,0.141-0.045,0.279-0.059,0.421C13.03,13.03,13,13.511,13,14c0,0.4,0.022,0.795,0.056,1.188
		c0.011,0.129,0.027,0.257,0.041,0.385c0.03,0.265,0.067,0.527,0.111,0.788c0.024,0.141,0.047,0.283,0.076,0.423
		c0.056,0.275,0.122,0.546,0.194,0.815c0.04,0.15,0.08,0.3,0.125,0.448c0.088,0.289,0.184,0.575,0.289,0.855
		c0.058,0.155,0.123,0.305,0.187,0.457c0.081,0.193,0.165,0.384,0.255,0.572c0.072,0.152,0.146,0.303,0.223,0.452
		c0.103,0.197,0.214,0.39,0.326,0.581c0.073,0.123,0.141,0.25,0.217,0.37c0.182,0.287,0.375,0.565,0.577,0.835
		c0.088,0.117,0.182,0.229,0.273,0.343c0.136,0.169,0.274,0.336,0.417,0.497c0.105,0.118,0.212,0.234,0.322,0.348
		c0.144,0.15,0.293,0.295,0.444,0.437c0.113,0.107,0.223,0.215,0.34,0.317c0.195,0.171,0.398,0.332,0.603,0.489
		c0.201,0.155,0.409,0.3,0.619,0.441c0.127,0.085,0.252,0.171,0.381,0.251c0.185,0.115,0.375,0.22,0.567,0.324
		c0.1,0.054,0.2,0.106,0.301,0.157c0.218,0.11,0.437,0.216,0.662,0.312c0.009,0.004,0.018,0.009,0.027,0.013
		C18.741,28.562,15.965,30,13,30C7.486,30,3,25.065,3,19S7.486,8,13,8z"/>
</g>
</svg>
