<?xml version="1.0" encoding="iso-8859-1"?>
<!-- Generator: Adobe Illustrator 22.1.0, SVG Export Plug-In . SVG Version: 6.00 Build 0)  -->
<svg version="1.1" xmlns="http://www.w3.org/2000/svg" xmlns:xlink="http://www.w3.org/1999/xlink" x="0px" y="0px"
	 viewBox="0 0 50 50" style="enable-background:new 0 0 50 50;" xml:space="preserve">
<g id="Layer_1">
	<path d="M8,49h41V15v-2V1H8C4.141,1,1,4.14,1,8v34C1,45.86,4.141,49,8,49z M8,3h39v10H25V7H11v6H8c-2.757,0-5-2.243-5-5
		S5.243,3,8,3z M23,15v11.865l-5-4.167l-5,4.167V15v-2V9h10v4V15z M3,12.895c0.009,0.01,0.02,0.018,0.029,0.027
		c0.078,0.079,0.162,0.151,0.244,0.226c0.084,0.078,0.166,0.158,0.255,0.231c0.087,0.072,0.18,0.138,0.27,0.206
		c0.09,0.068,0.177,0.138,0.27,0.202c0.096,0.066,0.198,0.123,0.298,0.184c0.094,0.057,0.185,0.118,0.282,0.171
		c0.104,0.057,0.214,0.106,0.322,0.158c0.098,0.047,0.193,0.099,0.293,0.141c0.113,0.048,0.231,0.087,0.347,0.129
		c0.1,0.036,0.197,0.078,0.299,0.11c0.128,0.04,0.26,0.069,0.39,0.102c0.095,0.024,0.187,0.053,0.283,0.073
		c0.153,0.032,0.311,0.051,0.468,0.073c0.077,0.011,0.153,0.027,0.231,0.035C7.517,14.987,7.757,15,8,15h3v16.135l7-5.833l7,5.833
		V15h22v32H8c-2.757,0-5-2.243-5-5V12.895z"/>
</g>
<g>
</g>
</svg>
