<?xml version="1.0" encoding="iso-8859-1"?>
<!-- Generator: Adobe Illustrator 22.1.0, SVG Export Plug-In . SVG Version: 6.00 Build 0)  -->
<svg version="1.1" xmlns="http://www.w3.org/2000/svg" xmlns:xlink="http://www.w3.org/1999/xlink" x="0px" y="0px"
	 viewBox="0 0 50 50" style="enable-background:new 0 0 50 50;" xml:space="preserve">
<g id="Layer_1">
	<path d="M36.103,35.177L31.048,19H34v-2h-3v-3h5V8h-5V1H19v7h-5v6h5v3h-3v2h2.952l-5.055,16.177L18.057,41H8v8h34v-8H31.943
		L36.103,35.177z M21,3h8v5h-8V3z M16,12v-2h3h12h3v2h-3H19H16z M21,14h8v3h-8.026L21,14z M16.103,34.823l4.852-15.525L20.957,19H29
		l4.897,15.823L29.485,41h-8.971L16.103,34.823z M40,43v4H10v-4h9.485h11.029H40z"/>
</g>
<g>
</g>
</svg>
