<?xml version="1.0" encoding="iso-8859-1"?>
<!-- Generator: Adobe Illustrator 22.1.0, SVG Export Plug-In . SVG Version: 6.00 Build 0)  -->
<svg version="1.1" xmlns="http://www.w3.org/2000/svg" xmlns:xlink="http://www.w3.org/1999/xlink" x="0px" y="0px"
	 viewBox="0 0 50 50" style="enable-background:new 0 0 50 50;" xml:space="preserve">
<g id="Layer_1">
	<path d="M35,6c0-2.757-2.243-5-5-5H20c-2.757,0-5,2.243-5,5v3H1v17h2v23h44V26h2V9H35V6z M17,6c0-1.654,1.346-3,3-3h10
		c1.654,0,3,1.346,3,3v3H17V6z M5,42.09c2.507,0.423,4.486,2.403,4.91,4.91H5V42.09z M40.09,47c0.423-2.507,2.403-4.486,4.91-4.91
		V47H40.09z M45,40.069c-3.612,0.453-6.477,3.319-6.931,6.931H11.931C11.477,43.388,8.612,40.523,5,40.069V26h14v6h5v2h2v-2h5v-6h14
		V40.069z M24,28v2h-3v-4h8v4h-3v-2H24z M47,24H31H19H3V11h44V24z"/>
</g>
<g>
</g>
</svg>
