<?xml version="1.0" encoding="iso-8859-1"?>
<!-- Generator: Adobe Illustrator 22.1.0, SVG Export Plug-In . SVG Version: 6.00 Build 0)  -->
<svg version="1.1" xmlns="http://www.w3.org/2000/svg" xmlns:xlink="http://www.w3.org/1999/xlink" x="0px" y="0px"
	 viewBox="0 0 50 50" style="enable-background:new 0 0 50 50;" xml:space="preserve">
<g id="Layer_1">
	<path d="M46,21H29v-5.721l-3-1v-2.377c1.894-0.356,3-1.754,3-3.903c0-2.57-2.979-5.416-3.319-5.732L25,1.634l-0.681,0.634
		C23.979,2.584,21,5.43,21,8c0,2.149,1.106,3.546,3,3.903v1.71l-3-1V21H4v12H1v16h48V33h-3V21z M23,8
		c0-1.026,1.048-2.517,1.998-3.569C25.854,5.381,27,6.9,27,8c0,1.383-0.617,2-2,2S23,9.383,23,8z M23,15.387l4,1.333V21h-4V15.387z
		 M21,23h8h15v4.719C43.695,27.9,43.352,28,43,28c-1.103,0-2-0.897-2-2h-2c0,1.103-0.897,2-2,2s-2-0.897-2-2h-2c0,1.103-0.897,2-2,2
		s-2-0.897-2-2h-2c0,1.103-0.897,2-2,2s-2-0.897-2-2h-2c0,1.103-0.897,2-2,2s-2-0.897-2-2h-2c0,1.103-0.897,2-2,2s-2-0.897-2-2H9
		c0,1.103-0.897,2-2,2c-0.352,0-0.695-0.1-1-0.281V23H21z M6,29.854C6.326,29.94,6.659,30,7,30c1.2,0,2.266-0.542,3-1.382
		C10.734,29.458,11.8,30,13,30s2.266-0.542,3-1.382C16.734,29.458,17.8,30,19,30s2.266-0.542,3-1.382C22.734,29.458,23.8,30,25,30
		s2.266-0.542,3-1.382C28.734,29.458,29.8,30,31,30s2.266-0.542,3-1.382C34.734,29.458,35.8,30,37,30s2.266-0.542,3-1.382
		C40.734,29.458,41.8,30,43,30c0.341,0,0.674-0.06,1-0.146V33H6V29.854z M47,35v12H3V35h1h42H47z"/>
</g>
<g>
</g>
</svg>
