<?xml version="1.0" encoding="iso-8859-1"?>
<!-- Generator: Adobe Illustrator 22.1.0, SVG Export Plug-In . SVG Version: 6.00 Build 0)  -->
<svg version="1.1" id="Layer_1" xmlns="http://www.w3.org/2000/svg" xmlns:xlink="http://www.w3.org/1999/xlink" x="0px" y="0px"
	 viewBox="0 0 50 50" style="enable-background:new 0 0 50 50;" xml:space="preserve">
<g id="Layer_1_1_">
	<path d="M33.65,1h-17.3l-4,9H1v39h48V10H37.65L33.65,1z M47,47H3V12h10.65l4-9h14.7l4,9H47V47z"/>
	<path d="M25,18c-6.065,0-11,4.935-11,11s4.935,11,11,11s11-4.935,11-11S31.065,18,25,18z M25,38c-4.962,0-9-4.038-9-9s4.038-9,9-9
		s9,4.038,9,9S29.962,38,25,38z"/>
	<rect x="41" y="41" width="2" height="2"/>
</g>
</svg>
