<?xml version="1.0" encoding="iso-8859-1"?>
<!-- Generator: Adobe Illustrator 22.1.0, SVG Export Plug-In . SVG Version: 6.00 Build 0)  -->
<svg version="1.1" id="Layer_1" xmlns="http://www.w3.org/2000/svg" xmlns:xlink="http://www.w3.org/1999/xlink" x="0px" y="0px"
	 viewBox="0 0 50 50" style="enable-background:new 0 0 50 50;" xml:space="preserve">
<g id="Layer_1_1_">
	<path d="M30.313,47.032l0.412,1.957l11.743-2.471l-0.412-1.957l-4.892,1.029l-1.868-8.876c1.657-0.575,3.06-1.68,4.009-3.193
		c1.128-1.799,1.468-3.925,0.957-5.987L34.97,6.198L23.187,8.677l0.453-2.611L10.009,3.198L4.717,24.534
		c-0.511,2.062-0.171,4.188,0.957,5.987c0.949,1.513,2.352,2.618,4.009,3.193L7.815,42.59l-4.892-1.029l-0.412,1.957l11.743,2.471
		l0.412-1.957l-4.893-1.03l1.868-8.876c0.208,0.017,0.417,0.033,0.624,0.033c1.533,0,3.03-0.457,4.332-1.34
		c1.758-1.192,2.926-3,3.289-5.093l2.345-13.525l2.866,16.525c0.363,2.093,1.531,3.901,3.289,5.093
		c1.302,0.883,2.798,1.34,4.332,1.34c0.207,0,0.416-0.016,0.624-0.033l1.868,8.876L30.313,47.032z M11.485,5.553l9.854,2.073
		l-1.653,9.532l-0.729-0.729c-1.352-1.353-3.373-1.769-5.152-1.057c-1.163,0.466-2.5,0.09-3.252-0.913L9.594,13.18L11.485,5.553z
		 M15.472,31.164c-1.303,0.885-2.872,1.193-4.414,0.869c-1.542-0.325-2.853-1.239-3.69-2.574c-0.837-1.335-1.089-2.913-0.71-4.443
		l2.315-9.333c1.296,1.706,3.584,2.345,5.576,1.546c1.031-0.414,2.208-0.172,2.995,0.615l1.725,1.725l-1.355,7.816
		C17.644,28.938,16.777,30.28,15.472,31.164z M33.493,8.553l1.768,7.129l-1.721,1.291c-0.714,0.535-1.652,0.62-2.451,0.221
		c-1.673-0.836-3.686-0.51-5.01,0.813l-0.989,0.989l-1.451-8.369L33.493,8.553z M29.506,34.164c-1.305-0.884-2.171-2.227-2.44-3.78
		l-1.557-8.979l1.985-1.985c0.714-0.714,1.8-0.891,2.702-0.438c1.481,0.74,3.221,0.584,4.545-0.41l1.043-0.782l2.536,10.227
		c0.379,1.53,0.127,3.107-0.71,4.443c-0.837,1.335-2.148,2.249-3.69,2.574C32.379,35.357,30.81,35.05,29.506,34.164z"/>
	<path d="M47.489,7.011v-2c-2.206,0-4-1.794-4-4h-2c0,2.206-1.794,4-4,4v2c2.206,0,4,1.794,4,4h2
		C43.489,8.805,45.283,7.011,47.489,7.011z M42.489,7.698c-0.444-0.668-1.019-1.242-1.687-1.687
		c0.668-0.444,1.242-1.019,1.687-1.687c0.444,0.668,1.019,1.242,1.687,1.687C43.508,6.455,42.933,7.03,42.489,7.698z"/>
	<path d="M18.489,35.011c0,2.206-1.794,4-4,4v2c2.206,0,4,1.794,4,4h2c0-2.206,1.794-4,4-4v-2c-2.206,0-4-1.794-4-4H18.489z
		 M19.489,41.698c-0.444-0.668-1.019-1.242-1.687-1.687c0.668-0.444,1.242-1.019,1.687-1.687c0.444,0.668,1.019,1.242,1.687,1.687
		C20.508,40.455,19.933,41.03,19.489,41.698z"/>
	<rect x="32.489" y="29.011" width="2" height="2"/>
	<rect x="28.489" y="25.011" width="2" height="2"/>
	<rect x="32.489" y="22.011" width="2" height="2"/>
	<rect x="9.489" y="26.011" width="2" height="2"/>
	<rect x="14.489" y="21.011" width="2" height="2"/>
</g>
</svg>
