<?xml version="1.0" encoding="iso-8859-1"?>
<!-- Generator: Adobe Illustrator 22.1.0, SVG Export Plug-In . SVG Version: 6.00 Build 0)  -->
<svg version="1.1" xmlns="http://www.w3.org/2000/svg" xmlns:xlink="http://www.w3.org/1999/xlink" x="0px" y="0px"
	 viewBox="0 0 50 50" style="enable-background:new 0 0 50 50;" xml:space="preserve">
<g id="Layer_1">
	<path d="M40.894,18.867l-1.965,0.375C38.977,19.489,39,19.744,39,20c0,0.272-0.03,0.553-0.091,0.835l-0.235,1.096l1.116,0.109
		c0.589,0.058,1.174,0.182,1.736,0.368l0.629-1.898c-0.379-0.126-0.767-0.229-1.159-0.309C40.999,20.134,41,20.067,41,20
		C41,19.618,40.964,19.237,40.894,18.867z"/>
	<path d="M38.485,15.116l-1.162,1.628c0.554,0.395,1,0.926,1.29,1.538l1.807-0.859C39.983,16.505,39.314,15.708,38.485,15.116z"/>
	<path d="M35.275,12.752l-1.891,0.653c0.2,0.578,0.352,1.175,0.451,1.776l0.144,0.871l0.883-0.036
		C34.926,16.015,34.986,16.008,35,16c0.492,0,0.973,0.088,1.429,0.262l0.713-1.868c-0.482-0.185-0.984-0.305-1.496-0.36
		C35.544,13.601,35.42,13.172,35.275,12.752z"/>
	<path d="M10.191,14.764l1.971,0.342c0.221-1.275,0.662-2.49,1.312-3.611l-1.73-1.003C10.976,11.818,10.453,13.256,10.191,14.764z"
		/>
	<path d="M13.057,8.625l1.529,1.289c0.837-0.992,1.83-1.822,2.953-2.465l-0.994-1.735C15.219,6.474,14.045,7.454,13.057,8.625z"/>
	<path d="M18.616,4.758l0.674,1.883C20.478,6.215,21.727,6,22.983,6l0.107,0L23,4C21.496,4,20.021,4.255,18.616,4.758z"/>
	<path d="M25.005,6.183c1.273,0.235,2.483,0.69,3.597,1.353l1.023-1.719c-1.317-0.784-2.75-1.323-4.257-1.601L25.005,6.183z"/>
	<path d="M31.475,7.15l-1.307,1.514c0.981,0.848,1.8,1.852,2.431,2.983l1.746-0.974C33.6,9.337,32.635,8.151,31.475,7.15z"/>
	<path d="M9.498,20.36c0.573-0.166,1.169-0.274,1.769-0.323l1.091-0.088l-0.186-1.078C12.06,18.217,12.003,17.62,12,17.046l-2,0.012
		c0.002,0.366,0.021,0.738,0.06,1.121c-0.377,0.067-0.75,0.154-1.116,0.26L9.498,20.36z"/>
	<rect x="34.027" y="38" width="4.056" height="2"/>
	<path d="M1.088,30.402c0.189,1.485,0.672,2.893,1.434,4.184l1.723-1.017c-0.623-1.056-1.018-2.206-1.172-3.419L1.088,30.402z"/>
	<path d="M1.03,28.184l1.994,0.147c0.091-1.224,0.423-2.395,0.987-3.478l-1.773-0.924C1.547,25.255,1.141,26.687,1.03,28.184z"/>
	<path d="M40.229,39.926c1.506-0.185,2.916-0.696,4.192-1.52l-1.084-1.681c-1.021,0.659-2.148,1.068-3.353,1.215L40.229,39.926z"/>
	<path d="M44.19,21.452l-1.039,1.709c1.023,0.623,1.908,1.482,2.562,2.485l1.676-1.091C46.574,23.303,45.469,22.229,44.19,21.452z"
		/>
	<rect x="27.947" y="38" width="4.053" height="2"/>
	<path d="M3.459,22.072l1.551,1.263c0.775-0.952,1.718-1.724,2.801-2.294l-0.932-1.77C5.556,19.967,4.405,20.91,3.459,22.072z"/>
	<path d="M7.399,38.995l0.838-1.816c-1.11-0.512-2.091-1.233-2.914-2.144l-1.484,1.341C4.845,37.488,6.043,38.369,7.399,38.995z"/>
	<rect x="15.787" y="38" width="4.053" height="2"/>
	<rect x="21.868" y="38" width="4.054" height="2"/>
	<path d="M48.483,33.18l-1.896-0.635c-0.379,1.13-1.022,2.183-1.861,3.042l1.432,1.396C47.205,35.911,48.01,34.595,48.483,33.18z"/>
	<path d="M9.955,37.767l-0.453,1.948C10.315,39.904,11.156,40,12,40h1.761v-2H12C11.309,38,10.62,37.922,9.955,37.767z"/>
	<path d="M46.516,27.251C46.837,28.128,47,29.053,47,29.997c-0.001,0.268-0.014,0.533-0.039,0.795l1.99,0.192
		C48.982,30.662,48.999,30.334,49,30c0-1.182-0.204-2.339-0.607-3.438L46.516,27.251z"/>
</g>
<g>
</g>
</svg>
