<?xml version="1.0" encoding="iso-8859-1"?>
<!-- Generator: Adobe Illustrator 22.1.0, SVG Export Plug-In . SVG Version: 6.00 Build 0)  -->
<svg version="1.1" id="Layer_1" xmlns="http://www.w3.org/2000/svg" xmlns:xlink="http://www.w3.org/1999/xlink" x="0px" y="0px"
	 viewBox="0 0 50 50" style="enable-background:new 0 0 50 50;" xml:space="preserve">
<g id="Layer_1_1_">
	<polygon points="26,49 26,27.414 30.293,31.707 31.707,30.293 25,23.586 18.293,30.293 19.707,31.707 24,27.414 24,49 	"/>
	<path d="M40.997,17.2C40.999,17.133,41,17.066,41,17c0-3.09-2.348-5.642-5.354-5.965C34.286,5.172,29.094,1,23,1
		c-7.168,0-13,5.832-13,13c0,0.384,0.02,0.775,0.06,1.18C4.902,16.106,1,20.669,1,26c0,6.065,4.935,11,11,11h8v-2h-8
		c-4.962,0-9-4.038-9-9c0-4.651,3.631-8.588,8.267-8.962l1.09-0.088l-0.186-1.078C12.055,15.199,12,14.586,12,14
		c0-6.065,4.935-11,11-11c5.393,0,9.95,3.862,10.836,9.183l0.145,0.871l0.882-0.036c0.062-0.002,0.124-0.009,0.137-0.017
		c2.206,0,4,1.794,4,4c0,0.272-0.031,0.553-0.091,0.835l-0.234,1.096l1.115,0.109c4.11,0.402,7.21,3.824,7.21,7.96
		c0,4.411-3.589,8-8,8h-9v2h9c5.514,0,10-4.486,10-10C49,22.175,45.625,18.128,40.997,17.2z"/>
</g>
</svg>
