<?xml version="1.0" encoding="iso-8859-1"?>
<!-- Generator: Adobe Illustrator 22.1.0, SVG Export Plug-In . SVG Version: 6.00 Build 0)  -->
<svg version="1.1" xmlns="http://www.w3.org/2000/svg" xmlns:xlink="http://www.w3.org/1999/xlink" x="0px" y="0px"
	 viewBox="0 0 50 50" style="enable-background:new 0 0 50 50;" xml:space="preserve">
<g id="Layer_1">
	<path d="M40.996,23.2C40.999,23.133,41,23.066,41,23c0-3.09-2.349-5.643-5.354-5.965C34.286,11.172,29.095,7,23,7
		c-7.168,0-13,5.832-13,13c0,0.384,0.02,0.775,0.06,1.18C4.902,22.106,1,26.669,1,32c0,6.065,4.935,11,11,11h27
		c5.514,0,10-4.486,10-10C49,28.175,45.624,24.128,40.996,23.2z M39,41H12c-4.963,0-9-4.038-9-9c0-4.651,3.631-8.588,8.267-8.962
		l1.091-0.088l-0.186-1.078C12.057,21.198,12,20.586,12,20c0-6.065,4.935-11,11-11c5.393,0,9.95,3.862,10.836,9.182l0.145,0.871
		l0.882-0.036C34.925,19.015,34.986,19.008,35,19c2.206,0,4,1.794,4,4c0,0.272-0.03,0.553-0.091,0.835l-0.235,1.096l1.115,0.109
		C43.9,25.442,47,28.864,47,33C47,37.411,43.411,41,39,41z"/>
</g>
<g>
</g>
</svg>
