<?xml version="1.0" encoding="iso-8859-1"?>
<!-- Generator: Adobe Illustrator 22.1.0, SVG Export Plug-In . SVG Version: 6.00 Build 0)  -->
<svg version="1.1" id="Layer_1" xmlns="http://www.w3.org/2000/svg" xmlns:xlink="http://www.w3.org/1999/xlink" x="0px" y="0px"
	 viewBox="0 0 50 50" style="enable-background:new 0 0 50 50;" xml:space="preserve">
<g id="Layer_1_1_">
	<path d="M25,49c13.233,0,24-10.767,24-24S38.233,1,25,1S1,11.767,1,25S11.767,49,25,49z M25,3c12.131,0,22,9.869,22,22
		s-9.869,22-22,22S3,37.131,3,25S12.869,3,25,3z"/>
	<path d="M38.925,11.075L20.42,19.006L30.994,29.58L38.925,11.075z M23.923,19.681l11.194-4.798l-4.798,11.194L23.923,19.681z"/>
	<path d="M19.006,20.42l-7.931,18.505l18.505-7.931L19.006,20.42z M19.681,23.923l6.396,6.396l-11.194,4.798L19.681,23.923z"/>
</g>
</svg>
