<?xml version="1.0" encoding="iso-8859-1"?>
<!-- Generator: Adobe Illustrator 22.1.0, SVG Export Plug-In . SVG Version: 6.00 Build 0)  -->
<svg version="1.1" xmlns="http://www.w3.org/2000/svg" xmlns:xlink="http://www.w3.org/1999/xlink" x="0px" y="0px"
	 viewBox="0 0 50 50" style="enable-background:new 0 0 50 50;" xml:space="preserve">
<g id="Layer_1">
	<path d="M44.181,38.233L39,25.8V23h5v-6h-5v-7h-4V1H8.586L1,8.586V39h23.586l3,3H19v7h30v-7h-8.586L44.181,38.233z M42,19v2h-3H29
		h-3v-2h3h10H42z M37,17h-6v-5h6V17z M8,4.414V8H4.414L8,4.414z M3,10h7V3h23v7h-4v7h-5v6h5v2.8L24.333,37H3V10z M26.181,37.767
		L31,26.2V23h6v3.2l4.819,11.566L37.586,42h-7.172L26.181,37.767z M47,44v3H21v-3h8.586h8.828H47z"/>
	<rect x="10" y="14" width="11" height="2"/>
	<rect x="10" y="19" width="11" height="2"/>
	<rect x="10" y="24" width="11" height="2"/>
	<rect x="10" y="29" width="11" height="2"/>
</g>
<g>
</g>
</svg>
