<?xml version="1.0" encoding="iso-8859-1"?>
<!-- Generator: Adobe Illustrator 22.1.0, SVG Export Plug-In . SVG Version: 6.00 Build 0)  -->
<svg version="1.1" id="Layer_1" xmlns="http://www.w3.org/2000/svg" xmlns:xlink="http://www.w3.org/1999/xlink" x="0px" y="0px"
	 viewBox="0 0 50 50" style="enable-background:new 0 0 50 50;" xml:space="preserve">
<g id="Layer_1_1_">
	<path d="M25,1C11.767,1,1,11.767,1,25s10.767,24,24,24s24-10.767,24-24S38.233,1,25,1z M10.175,41.239l2.097-2.097l-1.414-1.414
		l-2.097,2.097C5.395,36.141,3.265,31.313,3.026,26H6v-2H3.025c0.239-5.313,2.37-10.142,5.735-13.825l2.097,2.097l1.414-1.414
		l-2.097-2.097c3.684-3.366,8.512-5.496,13.825-5.735V6h2V3.025c5.313,0.239,10.142,2.37,13.825,5.735l-2.097,2.097l1.414,1.414
		l2.097-2.097c3.366,3.684,5.496,8.512,5.735,13.825H44v2h2.975c-0.239,5.313-2.37,10.142-5.735,13.825l-2.097-2.097l-1.414,1.414
		l2.097,2.097C35.912,44.815,30.706,47,25,47S14.088,44.815,10.175,41.239z"/>
	<path d="M25.512,23.074C25.348,23.03,25.178,23,25,23c-1.105,0-2,0.895-2,2s0.895,2,2,2s2-0.895,2-2
		c0-0.178-0.031-0.347-0.074-0.512l9.781-9.781l-1.414-1.414L25.512,23.074z"/>
	<rect x="24" y="39" width="2" height="2"/>
	<rect x="29" y="39" width="2" height="2"/>
	<rect x="19" y="39" width="2" height="2"/>
</g>
</svg>
