<?xml version="1.0" encoding="iso-8859-1"?>
<!-- Generator: Adobe Illustrator 22.1.0, SVG Export Plug-In . SVG Version: 6.00 Build 0)  -->
<svg version="1.1" xmlns="http://www.w3.org/2000/svg" xmlns:xlink="http://www.w3.org/1999/xlink" x="0px" y="0px"
	 viewBox="0 0 50 50" style="enable-background:new 0 0 50 50;" xml:space="preserve">
<g id="Layer_1">
	<path d="M38.586,16H31v-2h5V8h-5V1H19v7h-5v6h5v2h-7.586l-4-4H1v2h5.586l4,4H19v0.848L18.64,20H1v2h17.015l-0.625,2h-6.804l-4,4H1
		v2h6.414l4-4h5.351l-2.868,9.177L18.057,41H8v8h34v-8H31.943l4.159-5.823L33.235,26h5.351l4,4H49v-2h-5.586l-4-4H32.61l-0.625-2H49
		v-2H31.36L31,18.848V18h8.414l4-4H49v-2h-6.414L38.586,16z M21,3h8v5h-8V3z M16,12v-2h3h12h3v2h-3H19H16z M29,14v4h-8.035L21,14H29
		z M40,43v4H10v-4h9.485h11.029H40z M29.485,41h-8.971l-4.412-6.177L20.735,20h8.575l4.588,14.823L29.485,41z"/>
</g>
<g>
</g>
</svg>
