<?xml version="1.0" encoding="iso-8859-1"?>
<!-- Generator: Adobe Illustrator 22.1.0, SVG Export Plug-In . SVG Version: 6.00 Build 0)  -->
<svg version="1.1" id="Layer_1" xmlns="http://www.w3.org/2000/svg" xmlns:xlink="http://www.w3.org/1999/xlink" x="0px" y="0px"
	 viewBox="0 0 50 50" style="enable-background:new 0 0 50 50;" xml:space="preserve">
<g id="Layer_1_1_">
	<path d="M1,39h13.051C14.559,44.598,19.272,49,25,49s10.442-4.402,10.949-10H49V1H1V39z M25,47c-4.963,0-9-4.038-9-9s4.037-9,9-9
		s9,4.038,9,9S29.963,47,25,47z M3,3h44v34H35.949C35.441,31.402,30.728,27,25,27s-10.442,4.402-10.949,10H3V3z"/>
	<rect x="20" y="37" width="10" height="2"/>
</g>
</svg>
