<?xml version="1.0" encoding="iso-8859-1"?>
<!-- Generator: Adobe Illustrator 22.1.0, SVG Export Plug-In . SVG Version: 6.00 Build 0)  -->
<svg version="1.1" id="Layer_1" xmlns="http://www.w3.org/2000/svg" xmlns:xlink="http://www.w3.org/1999/xlink" x="0px" y="0px"
	 viewBox="0 0 50 50" style="enable-background:new 0 0 50 50;" xml:space="preserve">
<g id="Layer_1_1_">
	<path d="M25,49c5.728,0,10.442-4.402,10.949-10H49V1H1v38h13.051C14.558,44.598,19.272,49,25,49z M25,47c-4.962,0-9-4.038-9-9
		s4.038-9,9-9s9,4.038,9,9S29.962,47,25,47z M3,3h44v34H35.949C35.441,31.402,30.728,27,25,27s-10.442,4.402-10.949,10H3V3z"/>
	<polygon points="26,33 24,33 24,37 20,37 20,39 24,39 24,43 26,43 26,39 30,39 30,37 26,37 	"/>
</g>
</svg>
