<?xml version="1.0" encoding="iso-8859-1"?>
<!-- Generator: Adobe Illustrator 22.1.0, SVG Export Plug-In . SVG Version: 6.00 Build 0)  -->
<svg version="1.1" id="Layer_1" xmlns="http://www.w3.org/2000/svg" xmlns:xlink="http://www.w3.org/1999/xlink" x="0px" y="0px"
	 viewBox="0 0 50 50" style="enable-background:new 0 0 50 50;" xml:space="preserve">
<g id="Layer_1_1_">
	<path d="M43,28.214V7H20.468l-5-6H1v42h27.214c1.825,3.556,5.521,6,9.786,6c6.065,0,11-4.935,11-11
		C49,33.736,46.556,30.039,43,28.214z M27.417,41H3V3h11.532l5,6H41v18.417c-0.063-0.018-0.129-0.024-0.192-0.041
		c-0.351-0.093-0.707-0.168-1.071-0.226c-0.123-0.02-0.246-0.041-0.37-0.057c-0.449-0.056-0.904-0.094-1.368-0.094
		c-6.065,0-11,4.935-11,11c0,0.464,0.038,0.919,0.094,1.368c0.016,0.124,0.037,0.246,0.057,0.37c0.058,0.363,0.133,0.72,0.226,1.071
		C27.394,40.871,27.4,40.937,27.417,41z M38,47c-3.692,0-6.869-2.237-8.255-5.424c-0.111-0.257-0.209-0.517-0.295-0.781
		c-0.008-0.025-0.019-0.048-0.027-0.073c-0.086-0.27-0.157-0.544-0.217-0.821c-0.005-0.023-0.013-0.045-0.018-0.068
		c-0.056-0.267-0.095-0.537-0.126-0.808c-0.004-0.034-0.012-0.067-0.016-0.101C29.016,38.618,29,38.31,29,38c0-4.962,4.038-9,9-9
		c0.31,0,0.618,0.016,0.924,0.047c0.034,0.004,0.067,0.012,0.101,0.016c0.271,0.031,0.541,0.07,0.808,0.126
		c0.023,0.005,0.045,0.013,0.068,0.018c0.276,0.06,0.55,0.13,0.821,0.217c0.025,0.008,0.048,0.019,0.073,0.027
		c0.263,0.087,0.524,0.184,0.781,0.295C44.764,31.132,47,34.309,47,38.001C47,42.962,42.962,47,38,47z"/>
	<polygon points="39,33 37,33 37,37 33,37 33,39 37,39 37,43 39,43 39,39 43,39 43,37 39,37 	"/>
</g>
</svg>
