<?xml version="1.0" encoding="iso-8859-1"?>
<!-- Generator: Adobe Illustrator 22.1.0, SVG Export Plug-In . SVG Version: 6.00 Build 0)  -->
<svg version="1.1" id="Layer_1" xmlns="http://www.w3.org/2000/svg" xmlns:xlink="http://www.w3.org/1999/xlink" x="0px" y="0px"
	 viewBox="0 0 50 50" style="enable-background:new 0 0 50 50;" xml:space="preserve">
<g id="Layer_1_1_">
	<path d="M49,15v-2V9V7V1H1v6v2v4v2v34h48V15z M3,3h44v4H3V3z M3,9h44v4H3V9z M47,15v9.586l-6-6l-17,17l-10-10l-11,11V15H47z M3,47
		v-7.586l11-11l10,10l17-17l6,6V47H3z"/>
	<path d="M24,28c2.757,0,5-2.243,5-5s-2.243-5-5-5s-5,2.243-5,5S21.243,28,24,28z M24,20c1.654,0,3,1.346,3,3s-1.346,3-3,3
		s-3-1.346-3-3S22.346,20,24,20z"/>
</g>
</svg>
