<?xml version="1.0" encoding="iso-8859-1"?>
<!-- Generator: Adobe Illustrator 22.1.0, SVG Export Plug-In . SVG Version: 6.00 Build 0)  -->
<svg version="1.1" id="Layer_1" xmlns="http://www.w3.org/2000/svg" xmlns:xlink="http://www.w3.org/1999/xlink" x="0px" y="0px"
	 viewBox="0 0 50 50" style="enable-background:new 0 0 50 50;" xml:space="preserve">
<g id="Layer_1_1_">
	<path d="M41.999,1c-3.859,0-7,3.14-7,7h2c0-2.757,2.243-5,5-5s5,2.243,5,5v23.695c-1.992-2.835-5.28-4.695-9-4.695
		c-5.728,0-10.442,4.402-10.949,10h-4.101C22.441,31.402,17.728,27,12,27c-3.72,0-7.008,1.861-9,4.695V8c0-2.757,2.243-5,5-5
		s5,2.243,5,5h2c0-3.86-3.141-7-7-7S1,4.14,1,8v30c0,6.065,4.935,11,11,11c5.728,0,10.442-4.402,10.949-10h4.101
		C27.558,44.598,32.271,49,38,49c6.065,0,11-4.935,11-11V8C48.999,4.14,45.858,1,41.999,1z M11.999,47c-4.963,0-9-4.038-9-9
		s4.037-9,9-9s9,4.038,9,9S16.962,47,11.999,47z M37.999,47c-4.963,0-9-4.038-9-9s4.037-9,9-9s9,4.038,9,9S42.962,47,37.999,47z"/>
</g>
</svg>
