<?xml version="1.0" encoding="iso-8859-1"?>
<!-- Generator: Adobe Illustrator 22.1.0, SVG Export Plug-In . SVG Version: 6.00 Build 0)  -->
<svg version="1.1" id="Layer_1" xmlns="http://www.w3.org/2000/svg" xmlns:xlink="http://www.w3.org/1999/xlink" x="0px" y="0px"
	 viewBox="0 0 50 50" style="enable-background:new 0 0 50 50;" xml:space="preserve">
<g id="Layer_1_1_">
	<path d="M25,1C11.767,1,1,11.767,1,25s10.767,24,24,24s24-10.767,24-24S38.233,1,25,1z M27,3.095v2.491L23.586,9h-1.172
		l-4.741-4.741C19.966,3.446,22.431,3,25,3C25.675,3,26.341,3.035,27,3.095z M3,25c0-4.86,1.587-9.355,4.266-13h8.32L18,14.414
		v4.172L14.586,22l3,3l-2,2H8.524l2.8,7H20v5.586l-5,5C7.884,40.938,3,33.531,3,25z M25,47c-2.842,0-5.557-0.548-8.053-1.533
		L22,40.414V32h-9.323l-1.2-3h4.938l4-4l-3-3l2.586-2.586v-5.828L16.414,10H8.927c1.904-2.039,4.189-3.716,6.742-4.917L21.586,11
		h2.828L29,6.414V3.371c2.663,0.491,5.161,1.458,7.397,2.817L29,13.586V22h5v11.414l6.835,6.835C36.831,44.406,31.214,47,25,47z
		 M42.159,38.745L36,32.586V20h-5v-5.586l7.086-7.086C43.491,11.34,47,17.767,47,25C47,30.198,45.184,34.976,42.159,38.745z"/>
</g>
</svg>
