<?xml version="1.0" encoding="iso-8859-1"?>
<!-- Generator: Adobe Illustrator 22.1.0, SVG Export Plug-In . SVG Version: 6.00 Build 0)  -->
<svg version="1.1" xmlns="http://www.w3.org/2000/svg" xmlns:xlink="http://www.w3.org/1999/xlink" x="0px" y="0px"
	 viewBox="0 0 50 50" style="enable-background:new 0 0 50 50;" xml:space="preserve">
<g id="Layer_1">
	<path d="M4.719,25.915L25,46.422l20.281-20.507c4.949-5.004,4.949-13.146,0-18.15c-3.237-3.273-7.996-4.532-12.419-3.283
		l-0.434,0.122L27.406,15h2.976l-3,6h2.654L25,27.925V23h-2.674l2-7h-2.982l2.211-7.371L22.7,7.765C20.299,5.337,17.105,4,13.708,4
		c-3.396,0-6.589,1.337-8.989,3.765C-0.229,12.768-0.229,20.911,4.719,25.915z M13.709,6c2.858,0,5.547,1.126,7.569,3.171
		l0.021,0.021L18.656,18h3.018l-2,7H23v9.075L33.964,19h-3.346l3-6h-3.024l3.239-6.705c3.599-0.855,7.405,0.226,10.026,2.876
		c4.183,4.229,4.183,11.109,0,15.338L25,43.578L6.141,24.509c-4.182-4.229-4.182-11.11,0-15.338C8.163,7.126,10.851,6,13.709,6z"/>
</g>
<g>
</g>
</svg>
