<?xml version="1.0" encoding="iso-8859-1"?>
<!-- Generator: Adobe Illustrator 22.1.0, SVG Export Plug-In . SVG Version: 6.00 Build 0)  -->
<svg version="1.1" xmlns="http://www.w3.org/2000/svg" xmlns:xlink="http://www.w3.org/1999/xlink" x="0px" y="0px"
	 viewBox="0 0 50 50" style="enable-background:new 0 0 50 50;" xml:space="preserve">
<g id="Layer_1">
	<path d="M11,40.485V47H7v2h36v-2h-4v-6.515c0-1.871-0.729-3.628-2.051-4.95L26.414,25l10.535-10.535
		C38.271,13.143,39,11.385,39,9.515V3h4V1H7v2h4v6.515c0,1.871,0.729,3.628,2.051,4.95L23.586,25L13.051,35.535
		C11.729,36.857,11,38.615,11,40.485z M14.465,13.05C13.521,12.106,13,10.851,13,9.515V3h24v6.515c0,1.336-0.521,2.592-1.465,3.536
		L25,23.586L14.465,13.05z M25,26.414L35.535,36.95C36.479,37.894,37,39.149,37,40.485V47H13v-6.515
		c0-1.336,0.521-2.592,1.465-3.536L25,26.414z"/>
</g>
<g>
</g>
</svg>
