<?xml version="1.0" encoding="iso-8859-1"?>
<!-- Generator: Adobe Illustrator 22.1.0, SVG Export Plug-In . SVG Version: 6.00 Build 0)  -->
<svg version="1.1" id="Layer_1" xmlns="http://www.w3.org/2000/svg" xmlns:xlink="http://www.w3.org/1999/xlink" x="0px" y="0px"
	 viewBox="0 0 50 50" style="enable-background:new 0 0 50 50;" xml:space="preserve">
<g id="Layer_1_1_">
	<path d="M6,1H1v30v18h48V31V1h-5H6z M42,3v3H8V3H42z M33,31v1c0,4.411-3.589,8-8,8s-8-3.589-8-8v-1H8v-8h34v8H33z M8,21v-3h34v3H8z
		 M8,16v-3h34v3H8z M8,11V8h34v3H8z M3,3h3v3v1v4v1v4v1v4v1v9H3V3z M47,47H3V33h12.05c0.503,5.046,4.774,9,9.95,9
		s9.447-3.954,9.95-9H47V47z M47,3v28h-3v-9v-1v-4v-1v-4v-1V7V6V3H47z"/>
</g>
</svg>
