<?xml version="1.0" encoding="iso-8859-1"?>
<!-- Generator: Adobe Illustrator 22.1.0, SVG Export Plug-In . SVG Version: 6.00 Build 0)  -->
<svg version="1.1" id="Layer_1" xmlns="http://www.w3.org/2000/svg" xmlns:xlink="http://www.w3.org/1999/xlink" x="0px" y="0px"
	 viewBox="0 0 50 50" style="enable-background:new 0 0 50 50;" xml:space="preserve">
<g id="Layer_1_1_">
	<path d="M39,15c-5.606,0-11.865,6.199-14,8.503C22.865,21.198,16.606,15,11,15C4.738,15,1,18.738,1,25s3.738,10,10,10
		c5.606,0,11.865-6.199,14-8.503C27.135,28.802,33.394,35,39,35c6.262,0,10-3.738,10-10S45.262,15,39,15z M11,33
		c-6.96,0-8-5.012-8-8s1.04-8,8-8c4.862,0,10.802,5.991,12.657,8C21.803,27.01,15.869,33,11,33z M39,33
		c-4.862,0-10.802-5.991-12.657-8c1.854-2.01,7.788-8,12.657-8c6.96,0,8,5.012,8,8S45.96,33,39,33z"/>
</g>
</svg>
