<?xml version="1.0" encoding="iso-8859-1"?>
<!-- Generator: Adobe Illustrator 22.1.0, SVG Export Plug-In . SVG Version: 6.00 Build 0)  -->
<svg version="1.1" xmlns="http://www.w3.org/2000/svg" xmlns:xlink="http://www.w3.org/1999/xlink" x="0px" y="0px"
	 viewBox="0 0 50 50" style="enable-background:new 0 0 50 50;" xml:space="preserve">
<g id="Layer_1">
	<path d="M26,3V1h-2v2H3H1v2h2v26H1v2h2h17.471L14,47.791V49h2v-0.791L22.654,33H24v16h2V33h1.346L34,48.209V49h2v-1.209L29.529,33
		H47h2v-2h-2V5h2V3h-2H26z M45,31H5V5h40V31z"/>
	<path d="M16,28c4.411,0,8-3.589,8-8v-1h-7v-7h-1c-4.411,0-8,3.589-8,8S11.589,28,16,28z M15,14.083V21h6.917
		c-0.478,2.834-2.949,5-5.917,5c-3.309,0-6-2.691-6-6C10,17.032,12.166,14.561,15,14.083z"/>
	<path d="M28,16c0-4.411-3.589-8-8-8h-1v9h9V16z M21,15v-4.917c2.509,0.422,4.494,2.408,4.917,4.917H21z"/>
	<rect x="31" y="10" width="10" height="2"/>
	<rect x="31" y="15" width="10" height="2"/>
	<rect x="31" y="20" width="10" height="2"/>
</g>
<g>
</g>
</svg>
