<?xml version="1.0" encoding="iso-8859-1"?>
<!-- Generator: Adobe Illustrator 22.1.0, SVG Export Plug-In . SVG Version: 6.00 Build 0)  -->
<svg version="1.1" xmlns="http://www.w3.org/2000/svg" xmlns:xlink="http://www.w3.org/1999/xlink" x="0px" y="0px"
	 viewBox="0 0 50 50" style="enable-background:new 0 0 50 50;" xml:space="preserve">
<g id="Layer_1">
	<path d="M26,49v-2h7v-5v-2v-7.017c5.568-2.969,9-8.653,9-14.983c0-9.374-7.626-17-17-17S8,8.626,8,18c0,6.33,3.432,12.014,9,14.983
		V40v2v5h7v2H26z M18.438,31.472C13.233,28.932,10,23.77,10,18c0-8.271,6.729-15,15-15s15,6.729,15,15
		c0,5.77-3.233,10.932-8.438,13.472L31,31.746V40h-5V19.414l4.707-4.707l-1.414-1.414L25,17.586l-4.293-4.293l-1.414,1.414
		L24,19.414V40h-5v-8.254L18.438,31.472z M19,42h12v3H19V42z"/>
</g>
<g>
</g>
</svg>
