<?xml version="1.0" encoding="iso-8859-1"?>
<!-- Generator: Adobe Illustrator 22.1.0, SVG Export Plug-In . SVG Version: 6.00 Build 0)  -->
<svg version="1.1" xmlns="http://www.w3.org/2000/svg" xmlns:xlink="http://www.w3.org/1999/xlink" x="0px" y="0px"
	 viewBox="0 0 50 50" style="enable-background:new 0 0 50 50;" xml:space="preserve">
<g id="Layer_1">
	<path d="M8,15c3.86,0,7-3.14,7-7s-3.14-7-7-7S1,4.14,1,8S4.14,15,8,15z M8,3c2.757,0,5,2.243,5,5s-2.243,5-5,5s-5-2.243-5-5
		S5.243,3,8,3z"/>
	<rect x="18" y="7" width="31" height="2"/>
	<path d="M8,32c3.86,0,7-3.14,7-7s-3.14-7-7-7s-7,3.14-7,7S4.14,32,8,32z M8,20c2.757,0,5,2.243,5,5s-2.243,5-5,5s-5-2.243-5-5
		S5.243,20,8,20z"/>
	<rect x="18" y="24" width="31" height="2"/>
	<path d="M8,49c3.86,0,7-3.14,7-7s-3.14-7-7-7s-7,3.14-7,7S4.14,49,8,49z M8,37c2.757,0,5,2.243,5,5s-2.243,5-5,5s-5-2.243-5-5
		S5.243,37,8,37z"/>
	<rect x="18" y="41" width="31" height="2"/>
</g>
<g>
</g>
</svg>
