<?xml version="1.0" encoding="iso-8859-1"?>
<!-- Generator: Adobe Illustrator 22.1.0, SVG Export Plug-In . SVG Version: 6.00 Build 0)  -->
<svg version="1.1" xmlns="http://www.w3.org/2000/svg" xmlns:xlink="http://www.w3.org/1999/xlink" x="0px" y="0px"
	 viewBox="0 0 50 50" style="enable-background:new 0 0 50 50;" xml:space="preserve">
<g id="Layer_1">
	<path d="M25,1C15.075,1,7,9.075,7,19v2H5v28h40V21h-2v-2C43,9.075,34.925,1,25,1z M9,19c0-8.822,7.178-16,16-16s16,7.178,16,16v2H9
		V19z M43,47H7V23h36V47z"/>
	<path d="M24,36.858V41h2v-4.142c1.72-0.447,3-2,3-3.858c0-2.206-1.794-4-4-4s-4,1.794-4,4C21,34.858,22.28,36.411,24,36.858z
		 M25,31c1.103,0,2,0.897,2,2s-0.897,2-2,2s-2-0.897-2-2S23.897,31,25,31z"/>
</g>
<g>
</g>
</svg>
