<?xml version="1.0" encoding="iso-8859-1"?>
<!-- Generator: Adobe Illustrator 22.1.0, SVG Export Plug-In . SVG Version: 6.00 Build 0)  -->
<svg version="1.1" xmlns="http://www.w3.org/2000/svg" xmlns:xlink="http://www.w3.org/1999/xlink" x="0px" y="0px"
	 viewBox="0 0 50 50" style="enable-background:new 0 0 50 50;" xml:space="preserve">
<g id="Layer_1">
	<path d="M16.996,0.992L1,3.125v46.177l16.008-4.269l15.935,3.984L49,46.875V0.858L32.996,2.992L16.996,0.992z M47,3.142v41.982
		l-13.943,1.859l-16.065-4.016L3,46.698V4.875l14.004-1.867l16,2L47,3.142z"/>
	<path d="M24.272,34.686L25,35.458l0.728-0.771C26.106,34.285,35,24.764,35,17c0-8.11-5.166-11-10-11S15,8.89,15,17
		C15,24.764,23.894,34.285,24.272,34.686z M25,8c2.405,0,8,0.877,8,9c0,5.761-5.904,13.082-8,15.499c-2.097-2.417-8-9.731-8-15.499
		C17,8.877,22.595,8,25,8z"/>
	<path d="M25,21c2.757,0,5-2.243,5-5s-2.243-5-5-5s-5,2.243-5,5S22.243,21,25,21z M25,13c1.654,0,3,1.346,3,3s-1.346,3-3,3
		s-3-1.346-3-3S23.346,13,25,13z"/>
</g>
<g>
</g>
</svg>
