<?xml version="1.0" encoding="iso-8859-1"?>
<!-- Generator: Adobe Illustrator 22.1.0, SVG Export Plug-In . SVG Version: 6.00 Build 0)  -->
<svg version="1.1" xmlns="http://www.w3.org/2000/svg" xmlns:xlink="http://www.w3.org/1999/xlink" x="0px" y="0px"
	 viewBox="0 0 50 50" style="enable-background:new 0 0 50 50;" xml:space="preserve">
<g id="Layer_1">
	<path d="M42,7h-9V1H17v6H8v11H1v14h7v11h9v6h16v-6h9V32h7V18h-7V7z M19,3h12v10H19V3z M3,20h12v10H3V20z M31,47H19V37h12V47z
		 M40,41h-7v-6H17v6h-7v-9h7V18h-7V9h7v6h16V9h7v9h-7v14h7V41z M47,30H35V20h12V30z"/>
</g>
<g>
</g>
</svg>
