<?xml version="1.0" encoding="iso-8859-1"?>
<!-- Generator: Adobe Illustrator 22.1.0, SVG Export Plug-In . SVG Version: 6.00 Build 0)  -->
<svg version="1.1" xmlns="http://www.w3.org/2000/svg" xmlns:xlink="http://www.w3.org/1999/xlink" x="0px" y="0px"
	 viewBox="0 0 50 50" style="enable-background:new 0 0 50 50;" xml:space="preserve">
<g id="Layer_1">
	<path d="M13,37H8V26h16v11h-5v12h12V37h-5V26h16v11h-5v12h12V37h-5V24H26V13h7V1H17v12h7v11H6v13H1v12h12V37z M29,47h-8v-8h8V47z
		 M47,47h-8v-8h8V47z M19,3h12v8H19V3z M11,47H3v-8h8V47z"/>
</g>
<g>
</g>
</svg>
