<?xml version="1.0" encoding="iso-8859-1"?>
<!-- Generator: Adobe Illustrator 22.1.0, SVG Export Plug-In . SVG Version: 6.00 Build 0)  -->
<svg version="1.1" xmlns="http://www.w3.org/2000/svg" xmlns:xlink="http://www.w3.org/1999/xlink" x="0px" y="0px"
	 viewBox="0 0 50 50" style="enable-background:new 0 0 50 50;" xml:space="preserve">
<g id="Layer_1">
	<path d="M13,9h-2H5H1v32h12h2h34V9H15H13z M9,11v8H7v-8H9z M13,39H3V11h2v10h6V11h2V39z M47,11v28H15V11H47z"/>
	<rect x="25" y="23" width="15" height="2"/>
	<rect x="27" y="28" width="11" height="2"/>
	<rect x="37" y="33" width="2" height="2"/>
	<rect x="32" y="33" width="2" height="2"/>
	<rect x="27" y="33" width="2" height="2"/>
	<rect x="18" y="14" width="7" height="2"/>
</g>
<g>
</g>
</svg>
