<?xml version="1.0" encoding="iso-8859-1"?>
<!-- Generator: Adobe Illustrator 22.1.0, SVG Export Plug-In . SVG Version: 6.00 Build 0)  -->
<svg version="1.1" xmlns="http://www.w3.org/2000/svg" xmlns:xlink="http://www.w3.org/1999/xlink" x="0px" y="0px"
	 viewBox="0 0 50 50" style="enable-background:new 0 0 50 50;" xml:space="preserve">
<g id="Layer_1">
	<path d="M25,49c13.233,0,24-10.767,24-24S38.233,1,25,1S1,11.767,1,25S11.767,49,25,49z M25,47c-5.706,0-10.912-2.185-14.825-5.761
		L25.414,26h21.561C46.45,37.668,36.796,47,25,47z M46.975,24H26V3.025C37.337,3.535,46.465,12.663,46.975,24z M24,3.025v21.561
		L8.761,39.825C5.185,35.912,3,30.706,3,25C3,13.204,12.332,3.55,24,3.025z"/>
</g>
<g>
</g>
</svg>
