<?xml version="1.0" encoding="iso-8859-1"?>
<!-- Generator: Adobe Illustrator 22.1.0, SVG Export Plug-In . SVG Version: 6.00 Build 0)  -->
<svg version="1.1" xmlns="http://www.w3.org/2000/svg" xmlns:xlink="http://www.w3.org/1999/xlink" x="0px" y="0px"
	 viewBox="0 0 50 50" style="enable-background:new 0 0 50 50;" xml:space="preserve">
<g id="Layer_1">
	<path d="M8,48.618l5-2.5l4,2l4-2l4,2l4-2l4,2l4-2l5,2.5V1H8V48.618z M10,3h30v42.382l-3-1.5l-4,2l-4-2l-4,2l-4-2l-4,2l-4-2l-3,1.5
		V3z"/>
	<path d="M25,16c2.757,0,5-2.243,5-5s-2.243-5-5-5s-5,2.243-5,5S22.243,16,25,16z M25,8c1.654,0,3,1.346,3,3s-1.346,3-3,3
		s-3-1.346-3-3S23.346,8,25,8z"/>
	<rect x="14" y="22" width="12" height="2"/>
	<rect x="32" y="22" width="4" height="2"/>
	<rect x="14" y="27" width="12" height="2"/>
	<rect x="32" y="27" width="4" height="2"/>
	<rect x="14" y="32" width="12" height="2"/>
	<rect x="32" y="32" width="4" height="2"/>
	<rect x="14" y="37" width="12" height="2"/>
	<rect x="32" y="37" width="4" height="2"/>
</g>
<g>
</g>
</svg>
