<?xml version="1.0" encoding="iso-8859-1"?>
<!-- Generator: Adobe Illustrator 22.1.0, SVG Export Plug-In . SVG Version: 6.00 Build 0)  -->
<svg version="1.1" xmlns="http://www.w3.org/2000/svg" xmlns:xlink="http://www.w3.org/1999/xlink" x="0px" y="0px"
	 viewBox="0 0 50 50" style="enable-background:new 0 0 50 50;" xml:space="preserve">
<g id="Layer_1">
	<path d="M38.594,13.356l0.468-4.477L34.95,7.05l-1.829-4.112l-4.477,0.467L25,0.765l-3.644,2.641l-4.477-0.468L15.05,7.05
		l-4.112,1.829l0.467,4.477L8.765,17l2.641,3.644l-0.468,4.477l4.113,1.829L16,29.085v19.72l9-5.625l9,5.625V29.085l0.95-2.135
		l4.112-1.829l-0.467-4.477L41.235,17L38.594,13.356z M25,40.821l-7,4.375V30.945l3.356-0.35L25,33.235l3.644-2.641L32,30.945v14.25
		L25,40.821z M36.922,23.883l-3.487,1.552l-1.552,3.487l-3.793-0.396L25,30.765l-3.09-2.239l-3.793,0.396l-1.552-3.487l-3.487-1.552
		l0.396-3.793L11.235,17l2.239-3.09l-0.396-3.793l3.487-1.552l1.552-3.487l3.793,0.396L25,3.235l3.09,2.239l3.793-0.396l1.552,3.487
		l3.487,1.552l-0.396,3.793L38.765,17l-2.239,3.09L36.922,23.883z"/>
	<path d="M25,7c-5.514,0-10,4.486-10,10s4.486,10,10,10s10-4.486,10-10S30.514,7,25,7z M25,25c-4.411,0-8-3.589-8-8s3.589-8,8-8
		s8,3.589,8,8S29.411,25,25,25z"/>
</g>
<g>
</g>
</svg>
