<?xml version="1.0" encoding="iso-8859-1"?>
<!-- Generator: Adobe Illustrator 22.1.0, SVG Export Plug-In . SVG Version: 6.00 Build 0)  -->
<svg version="1.1" xmlns="http://www.w3.org/2000/svg" xmlns:xlink="http://www.w3.org/1999/xlink" x="0px" y="0px"
	 viewBox="0 0 50 50" style="enable-background:new 0 0 50 50;" xml:space="preserve">
<g id="Layer_1">
	<path d="M25,1C18.068,1,11.53,3.993,7,9.126V3H5v10h10v-2H8.042C12.205,5.963,18.405,3,25,3c12.131,0,22,9.869,22,22
		s-9.869,22-22,22S3,37.131,3,25c0-2.633,0.46-5.208,1.367-7.652l-1.875-0.696C1.502,19.32,1,22.128,1,25c0,13.233,10.767,24,24,24
		s24-10.767,24-24S38.233,1,25,1z"/>
</g>
<g>
</g>
</svg>
