<?xml version="1.0" encoding="iso-8859-1"?>
<!-- Generator: Adobe Illustrator 22.1.0, SVG Export Plug-In . SVG Version: 6.00 Build 0)  -->
<svg version="1.1" xmlns="http://www.w3.org/2000/svg" xmlns:xlink="http://www.w3.org/1999/xlink" x="0px" y="0px"
	 viewBox="0 0 50 50" style="enable-background:new 0 0 50 50;" xml:space="preserve">
<g id="Layer_1">
	<path d="M49,1H1v48h48V1z M47,47H3V3h44V47z"/>
	<path d="M13,43c3.309,0,6-2.691,6-6s-2.691-6-6-6s-6,2.691-6,6S9.691,43,13,43z M13,33c2.206,0,4,1.794,4,4s-1.794,4-4,4
		s-4-1.794-4-4S10.794,33,13,33z"/>
	<path d="M29,43h2c0-13.233-10.767-24-24-24v2C19.131,21,29,30.869,29,43z"/>
	<path d="M40,43h2C42,23.701,26.299,8,7,8v2C25.196,10,40,24.804,40,43z"/>
</g>
<g>
</g>
</svg>
