<?xml version="1.0" encoding="iso-8859-1"?>
<!-- Generator: Adobe Illustrator 22.1.0, SVG Export Plug-In . SVG Version: 6.00 Build 0)  -->
<svg version="1.1" xmlns="http://www.w3.org/2000/svg" xmlns:xlink="http://www.w3.org/1999/xlink" x="0px" y="0px"
	 viewBox="0 0 50 50" style="enable-background:new 0 0 50 50;" xml:space="preserve">
<g id="Layer_1">
	<path d="M1,49h48V1H1V49z M3,47V11h44v36H3z M47,3v6H3V3H47z"/>
	<rect x="7" y="15" width="36" height="2"/>
	<rect x="11" y="20" width="3" height="2"/>
	<rect x="18" y="20" width="21" height="2"/>
	<rect x="11" y="25" width="3" height="2"/>
	<rect x="18" y="25" width="21" height="2"/>
	<rect x="11" y="30" width="3" height="2"/>
	<rect x="18" y="30" width="21" height="2"/>
	<rect x="11" y="35" width="3" height="2"/>
	<rect x="18" y="35" width="21" height="2"/>
	<rect x="11" y="40" width="3" height="2"/>
	<rect x="18" y="40" width="21" height="2"/>
</g>
<g>
</g>
</svg>
