<?xml version="1.0" encoding="iso-8859-1"?>
<!-- Generator: Adobe Illustrator 22.1.0, SVG Export Plug-In . SVG Version: 6.00 Build 0)  -->
<svg version="1.1" xmlns="http://www.w3.org/2000/svg" xmlns:xlink="http://www.w3.org/1999/xlink" x="0px" y="0px"
	 viewBox="0 0 50 50" style="enable-background:new 0 0 50 50;" xml:space="preserve">
<g id="Layer_1">
	<path d="M33,1H17h-3H1v15v2v13v2v16h48V33v-2V18v-2V1H36H33z M32.931,3c-0.495,3.94-3.859,7-7.931,7s-7.436-3.06-7.931-7H32.931z
		 M47,47H3V33h12.05c0.503,5.046,4.773,9,9.95,9s9.447-3.954,9.95-9H47V47z M17.069,33h15.861c-0.495,3.94-3.859,7-7.931,7
		S17.564,36.94,17.069,33z M47,31H33H17H3V18h12.05c0.503,5.046,4.773,9,9.95,9s9.447-3.954,9.95-9H47V31z M17.069,18h15.861
		c-0.495,3.94-3.859,7-7.931,7S17.564,21.94,17.069,18z M47,3v13H33H17H3V3h11h1.05c0.503,5.046,4.773,9,9.95,9s9.447-3.954,9.95-9
		H36H47z"/>
</g>
<g>
</g>
</svg>
