<?xml version="1.0" encoding="iso-8859-1"?>
<!-- Generator: Adobe Illustrator 22.1.0, SVG Export Plug-In . SVG Version: 6.00 Build 0)  -->
<svg version="1.1" xmlns="http://www.w3.org/2000/svg" xmlns:xlink="http://www.w3.org/1999/xlink" x="0px" y="0px"
	 viewBox="0 0 50 50" style="enable-background:new 0 0 50 50;" xml:space="preserve">
<g id="Layer_1">
	<path d="M25,1C11.767,1,1,11.767,1,25s10.767,24,24,24s24-10.767,24-24S38.233,1,25,1z M44.917,15.668l-8.337,3.454
		c-1.25-2.451-3.25-4.451-5.701-5.701l3.454-8.337C38.974,7.267,42.733,11.026,44.917,15.668z M25,36c-6.065,0-11-4.935-11-11
		s4.935-11,11-11s11,4.935,11,11S31.065,36,25,36z M32.486,4.313l-3.453,8.335C27.762,12.232,26.409,12,25,12
		c-1.409,0-2.762,0.232-4.033,0.648l-3.453-8.335C19.852,3.465,22.372,3,25,3S30.148,3.465,32.486,4.313z M15.668,5.083l3.454,8.337
		c-2.451,1.25-4.452,3.25-5.701,5.701l-8.337-3.454C7.267,11.026,11.026,7.267,15.668,5.083z M4.313,17.514l8.335,3.453
		C12.232,22.238,12,23.592,12,25c0,1.409,0.232,2.762,0.648,4.033l-8.335,3.453C3.465,30.148,3,27.628,3,25
		S3.465,19.852,4.313,17.514z M5.083,34.332l8.337-3.454c1.25,2.451,3.25,4.451,5.701,5.701l-3.454,8.337
		C11.026,42.733,7.267,38.974,5.083,34.332z M17.514,45.687l3.453-8.335C22.238,37.768,23.591,38,25,38s2.762-0.232,4.033-0.648
		l3.453,8.335C30.148,46.535,27.628,47,25,47S19.852,46.535,17.514,45.687z M34.332,44.917l-3.454-8.337
		c2.451-1.25,4.451-3.25,5.701-5.701l8.337,3.454C42.733,38.974,38.974,42.733,34.332,44.917z M45.687,32.486l-8.335-3.453
		C37.768,27.762,38,26.409,38,25s-0.232-2.762-0.648-4.033l8.335-3.453C46.535,19.852,47,22.372,47,25S46.535,30.148,45.687,32.486z
		"/>
</g>
<g>
</g>
</svg>
