<?xml version="1.0" encoding="iso-8859-1"?>
<!-- Generator: Adobe Illustrator 22.1.0, SVG Export Plug-In . SVG Version: 6.00 Build 0)  -->
<svg version="1.1" xmlns="http://www.w3.org/2000/svg" xmlns:xlink="http://www.w3.org/1999/xlink" x="0px" y="0px"
	 viewBox="0 0 50 50" style="enable-background:new 0 0 50 50;" xml:space="preserve">
<g id="Layer_1">
	<path d="M47.255,15.313L34.527,2.586L19,18.113V1H1v30v2v16h48V31H31.568L47.255,15.313z M34.527,5.414l9.899,9.899L28.74,31H8.941
		L19,20.941L34.527,5.414z M3,3h14v17.113L6.113,31H3V3z M47,33v14H3V33h1.113h2.828h22.627H47z"/>
	<path d="M22,35h-8v10h8V35z M20,43h-4v-6h4V43z"/>
	<path d="M33,35h-8v10h8V35z M31,43h-4v-6h4V43z"/>
	<path d="M44,35h-8v10h8V35z M42,43h-4v-6h4V43z"/>
	<rect x="6" y="39" width="2" height="2"/>
</g>
<g>
</g>
</svg>
