<?xml version="1.0" encoding="iso-8859-1"?>
<!-- Generator: Adobe Illustrator 22.1.0, SVG Export Plug-In . SVG Version: 6.00 Build 0)  -->
<svg version="1.1" xmlns="http://www.w3.org/2000/svg" xmlns:xlink="http://www.w3.org/1999/xlink" x="0px" y="0px"
	 viewBox="0 0 50 50" style="enable-background:new 0 0 50 50;" xml:space="preserve">
<g id="Layer_1">
	<path d="M40.875,7H47V5H37v10h2V8.042c5.037,4.164,8,10.363,8,16.958c0,8.387-4.881,16.165-12.436,19.817l0.871,1.801
		C43.676,42.634,49,34.148,49,25C49,18.068,46.007,11.53,40.875,7z"/>
	<path d="M29.173,48.639c1.054-0.185,2.106-0.444,3.131-0.771l-0.607-1.906c-0.938,0.3-1.904,0.537-2.869,0.706L29.173,48.639z"/>
	<path d="M22.914,48.91C23.606,48.97,24.308,49,25,49c0.35,0,0.697-0.007,1.044-0.022l-0.088-1.998
		c-0.945,0.041-1.915,0.021-2.87-0.062L22.914,48.91z"/>
	<path d="M16.652,47.508c1.019,0.378,2.072,0.689,3.132,0.924l0.432-1.953c-0.97-0.215-1.935-0.499-2.868-0.846L16.652,47.508z"/>
	<path d="M1,25c0,6.932,2.993,13.47,8.125,18H3v2h10V35h-2v6.958C5.963,37.795,3,31.595,3,25C3,16.613,7.881,8.835,15.436,5.183
		l-0.871-1.801C6.324,7.366,1,15.852,1,25z"/>
	<path d="M20.827,1.361c-1.054,0.185-2.106,0.444-3.131,0.771l0.607,1.906c0.938-0.3,1.904-0.537,2.869-0.706L20.827,1.361z"/>
	<path d="M26.914,3.082l0.172-1.992c-1.042-0.089-2.097-0.114-3.13-0.067l0.088,1.998C24.99,2.98,25.959,3,26.914,3.082z"/>
	<path d="M33.348,2.492c-1.019-0.378-2.072-0.689-3.132-0.924l-0.432,1.953c0.97,0.215,1.935,0.499,2.868,0.846L33.348,2.492z"/>
</g>
<g>
</g>
</svg>
