<?xml version="1.0" encoding="iso-8859-1"?>
<!-- Generator: Adobe Illustrator 22.1.0, SVG Export Plug-In . SVG Version: 6.00 Build 0)  -->
<svg version="1.1" xmlns="http://www.w3.org/2000/svg" xmlns:xlink="http://www.w3.org/1999/xlink" x="0px" y="0px"
	 viewBox="0 0 50 50" style="enable-background:new 0 0 50 50;" xml:space="preserve">
<g id="Layer_1">
	<path d="M44,7H6c-2.757,0-5,2.243-5,5v26c0,2.757,2.243,5,5,5h38c2.757,0,5-2.243,5-5V12C49,9.243,46.757,7,44,7z M39,9v32H11V9H39
		z M3,38V12c0-1.654,1.346-3,3-3h3v32H6C4.346,41,3,39.654,3,38z M47,38c0,1.654-1.346,3-3,3h-3V9h3c1.654,0,3,1.346,3,3V38z"/>
	<rect x="43" y="24" width="2" height="2"/>
	<rect x="13.757" y="21" transform="matrix(0.7071 -0.7071 0.7071 0.7071 -10.2843 19.1716)" width="8.485" height="2"/>
	<rect x="22.586" y="15" transform="matrix(0.7071 -0.7071 0.7071 0.7071 -4.2843 21.6569)" width="2.828" height="2"/>
	<rect x="27.757" y="27" transform="matrix(0.7071 -0.7071 0.7071 0.7071 -10.4264 30.8284)" width="8.485" height="2"/>
	<rect x="24.586" y="33" transform="matrix(0.7071 -0.7071 0.7071 0.7071 -16.4264 28.3431)" width="2.828" height="2"/>
	<rect x="13.686" y="24" transform="matrix(0.7071 -0.7071 0.7071 0.7071 -10.3553 25)" width="22.627" height="2"/>
</g>
<g>
</g>
</svg>
