<?xml version="1.0" encoding="iso-8859-1"?>
<!-- Generator: Adobe Illustrator 22.1.0, SVG Export Plug-In . SVG Version: 6.00 Build 0)  -->
<svg version="1.1" xmlns="http://www.w3.org/2000/svg" xmlns:xlink="http://www.w3.org/1999/xlink" x="0px" y="0px"
	 viewBox="0 0 50 50" style="enable-background:new 0 0 50 50;" xml:space="preserve">
<g id="Layer_1">
	<path d="M0.586,30L20,49.414l29-29V1H29.586L0.586,30z M47,3v16.586l-27,27L3.414,30l27-27H47z"/>
	<path d="M40,14c2.206,0,4-1.794,4-4s-1.794-4-4-4s-4,1.794-4,4S37.794,14,40,14z M40,8c1.103,0,2,0.897,2,2s-0.897,2-2,2
		s-2-0.897-2-2S38.897,8,40,8z"/>
</g>
<g>
</g>
</svg>
