<?xml version="1.0" encoding="iso-8859-1"?>
<!-- Generator: Adobe Illustrator 22.1.0, SVG Export Plug-In . SVG Version: 6.00 Build 0)  -->
<svg version="1.1" xmlns="http://www.w3.org/2000/svg" xmlns:xlink="http://www.w3.org/1999/xlink" x="0px" y="0px"
	 viewBox="0 0 50 50" style="enable-background:new 0 0 50 50;" xml:space="preserve">
<g id="Layer_1">
	<path d="M4,28c0,11.579,9.421,21,21,21s21-9.421,21-21c0-9.853-6.831-18.121-16-20.373V3h3V1h-3H20h-3v2h3v4.627
		C10.831,9.879,4,18.147,4,28z M44,28c0,10.139-7.989,18.424-18,18.949V44h-2v2.949C14.323,46.442,6.558,38.677,6.051,29H9v-2H6.051
		c0.475-9.052,7.298-16.43,16.101-17.763c0.31-0.047,0.617-0.109,0.93-0.14c0.179-0.018,0.364-0.015,0.544-0.028
		c0.915-0.065,1.833-0.065,2.748,0c0.181,0.013,0.365,0.01,0.544,0.028c0.313,0.031,0.62,0.094,0.93,0.14
		C36.975,10.619,44,18.494,44,28z M22,7.214V3h6v4.214c-0.186-0.026-0.373-0.038-0.56-0.06c-0.179-0.021-0.358-0.041-0.539-0.058
		C26.269,7.039,25.635,7,25,7s-1.269,0.039-1.901,0.096c-0.181,0.016-0.36,0.037-0.539,0.058C22.373,7.176,22.186,7.187,22,7.214z"
		/>
	<rect x="41.5" y="8.379" transform="matrix(0.7071 -0.7071 0.7071 0.7071 5.0233 33.1274)" width="2" height="4.243"/>
	<path d="M25,12h-1v17h17v-1C41,19.178,33.822,12,25,12z M26,27V14.035C32.924,14.526,38.474,20.076,38.965,27H26z"/>
</g>
<g>
</g>
</svg>
