<?xml version="1.0" encoding="iso-8859-1"?>
<!-- Generator: Adobe Illustrator 22.1.0, SVG Export Plug-In . SVG Version: 6.00 Build 0)  -->
<svg version="1.1" xmlns="http://www.w3.org/2000/svg" xmlns:xlink="http://www.w3.org/1999/xlink" x="0px" y="0px"
	 viewBox="0 0 50 50" style="enable-background:new 0 0 50 50;" xml:space="preserve">
<g id="Layer_1">
	<polygon points="42.707,39.707 41.293,38.293 35,44.586 35,19 33,19 33,44.586 26.707,38.293 25.293,39.707 34,48.414 	"/>
	<rect x="33" y="1" width="2" height="3"/>
	<rect x="33" y="7" width="2" height="3"/>
	<rect x="33" y="13" width="2" height="3"/>
	<polygon points="17,5.414 23.293,11.707 24.707,10.293 16,1.586 7.293,10.293 8.707,11.707 15,5.414 15,31 17,31 	"/>
	<rect x="15" y="46" width="2" height="3"/>
	<rect x="15" y="40" width="2" height="3"/>
	<rect x="15" y="34" width="2" height="3"/>
</g>
<g>
</g>
</svg>
