<?xml version="1.0" encoding="iso-8859-1"?>
<!-- Generator: Adobe Illustrator 22.1.0, SVG Export Plug-In . SVG Version: 6.00 Build 0)  -->
<svg version="1.1" xmlns="http://www.w3.org/2000/svg" xmlns:xlink="http://www.w3.org/1999/xlink" x="0px" y="0px"
	 viewBox="0 0 50 50" style="enable-background:new 0 0 50 50;" xml:space="preserve">
<g id="Layer_1">
	<polygon points="39.707,7.293 38.293,8.707 44.586,15 19,15 19,17 44.586,17 38.293,23.293 39.707,24.707 48.414,16 	"/>
	<rect x="1" y="15" width="3" height="2"/>
	<rect x="7" y="15" width="3" height="2"/>
	<rect x="13" y="15" width="3" height="2"/>
	<polygon points="11.707,41.293 5.414,35 31,35 31,33 5.414,33 11.707,26.707 10.293,25.293 1.586,34 10.293,42.707 	"/>
	<rect x="46" y="33" width="3" height="2"/>
	<rect x="40" y="33" width="3" height="2"/>
	<rect x="34" y="33" width="3" height="2"/>
</g>
<g>
</g>
</svg>
