<?xml version="1.0" encoding="iso-8859-1"?>
<!-- Generator: Adobe Illustrator 22.1.0, SVG Export Plug-In . SVG Version: 6.00 Build 0)  -->
<svg version="1.1" xmlns="http://www.w3.org/2000/svg" xmlns:xlink="http://www.w3.org/1999/xlink" x="0px" y="0px"
	 viewBox="0 0 50 50" style="enable-background:new 0 0 50 50;" xml:space="preserve">
<g id="Layer_1">
	<path d="M1,38h23v3H12v2h26v-2H26v-3h23V8H1V38z M3,10h44v26H3V10z"/>
	<path d="M6,22h18V12H6V22z M8,14h14v6H8V14z"/>
	<path d="M26,22h18V12H26V22z M28,14h14v6H28V14z"/>
	<path d="M6,34h18V24H6V34z M8,26h14v6H8V26z"/>
	<path d="M26,34h18V24H26V34z M28,26h14v6H28V26z"/>
</g>
<g>
</g>
</svg>
