<?xml version="1.0" encoding="iso-8859-1"?>
<!-- Generator: Adobe Illustrator 22.1.0, SVG Export Plug-In . SVG Version: 6.00 Build 0)  -->
<svg version="1.1" xmlns="http://www.w3.org/2000/svg" xmlns:xlink="http://www.w3.org/1999/xlink" x="0px" y="0px"
	 viewBox="0 0 50 50" style="enable-background:new 0 0 50 50;" xml:space="preserve">
<g id="Layer_1">
	<path d="M25,3c8.115,0,14.947,6.068,15.891,14.116l1.986-0.232C41.815,7.828,34.13,1,25,1C15.075,1,7,9.075,7,19v2H5v28h40V21H9v-2
		C9,10.178,16.178,3,25,3z M43,47H7V23h36V47z"/>
	<path d="M24,36.858V41h2v-4.142c1.721-0.447,3-1.999,3-3.858c0-2.206-1.794-4-4-4s-4,1.794-4,4C21,34.859,22.279,36.411,24,36.858z
		 M25,31c1.103,0,2,0.897,2,2s-0.897,2-2,2s-2-0.897-2-2S23.897,31,25,31z"/>
</g>
<g>
</g>
</svg>
