<?xml version="1.0" encoding="iso-8859-1"?>
<!-- Generator: Adobe Illustrator 22.1.0, SVG Export Plug-In . SVG Version: 6.00 Build 0)  -->
<svg version="1.1" xmlns="http://www.w3.org/2000/svg" xmlns:xlink="http://www.w3.org/1999/xlink" x="0px" y="0px"
	 viewBox="0 0 50 50" style="enable-background:new 0 0 50 50;" xml:space="preserve">
<g id="Layer_1">
	<path d="M9,32v17h32V32c0-7.168-5.832-13-13-13h-6C14.832,19,9,24.832,9,32z M22,21h6c6.065,0,11,4.935,11,11v15H11V32
		C11,25.935,15.935,21,22,21z"/>
	<path d="M34,10c0-4.963-4.037-9-9-9s-9,4.037-9,9v7h18V10z M32,15H18v-5c0-3.859,3.141-7,7-7s7,3.141,7,7V15z"/>
</g>
<g>
</g>
</svg>
