<?xml version="1.0" encoding="iso-8859-1"?>
<!-- Generator: Adobe Illustrator 22.1.0, SVG Export Plug-In . SVG Version: 6.00 Build 0)  -->
<svg version="1.1" xmlns="http://www.w3.org/2000/svg" xmlns:xlink="http://www.w3.org/1999/xlink" x="0px" y="0px"
	 viewBox="0 0 50 50" style="enable-background:new 0 0 50 50;" xml:space="preserve">
<g id="Layer_1">
	<path d="M1,39h27.586L38,48.414V39h11V1H1V39z M3,3h44v34H36v6.586L29.414,37H3V3z"/>
	<path d="M15.818,24L33,30.443V5.557L15.818,12H7v12h6v6h2v-6H15.818z M31,27.557l-14-5.25v-8.613l14-5.25V27.557z M9,14h6v8H9V14z"
		/>
	<path d="M36.207,22.742c1.134-1.134,1.759-2.641,1.759-4.242s-0.625-3.108-1.759-4.242l-1.414,1.414c1.56,1.56,1.56,4.097,0,5.656
		L36.207,22.742z"/>
	<path d="M40.207,26.207c4.25-4.25,4.25-11.164,0-15.414l-1.414,1.414c3.47,3.47,3.47,9.116,0,12.586L40.207,26.207z"/>
</g>
<g>
</g>
</svg>
