<?xml version="1.0" encoding="iso-8859-1"?>
<!-- Generator: Adobe Illustrator 22.1.0, SVG Export Plug-In . SVG Version: 6.00 Build 0)  -->
<svg version="1.1" xmlns="http://www.w3.org/2000/svg" xmlns:xlink="http://www.w3.org/1999/xlink" x="0px" y="0px"
	 viewBox="0 0 50 50" style="enable-background:new 0 0 50 50;" xml:space="preserve">
<g id="Layer_1">
	<path d="M48.882,22.585l-4.271-1.412c-0.176-0.908-0.416-1.804-0.714-2.673l2.998-3.362l-0.292-0.603
		c-0.506-1.043-1.094-2.059-1.746-3.018l-0.376-0.553l-4.391,0.914c-0.609-0.7-1.269-1.359-1.968-1.969l0.914-4.391l-0.553-0.376
		c-0.963-0.655-1.979-1.242-3.017-1.745l-0.602-0.292L31.5,6.104c-0.871-0.299-1.766-0.538-2.673-0.714l-1.413-4.271L26.748,1.07
		c-1.155-0.084-2.34-0.084-3.495,0l-0.667,0.048L21.173,5.39c-0.907,0.176-1.802,0.415-2.673,0.714l-3.363-2.999l-0.603,0.293
		c-1.044,0.508-2.06,1.095-3.017,1.746l-0.553,0.377l0.914,4.39c-0.7,0.609-1.359,1.269-1.968,1.968l-4.39-0.913l-0.376,0.553
		c-0.653,0.96-1.241,1.975-1.747,3.018l-0.292,0.603L6.103,18.5c-0.298,0.869-0.537,1.764-0.713,2.673l-4.271,1.412L1.07,23.252
		C1.028,23.831,1,24.411,1,25s0.028,1.169,0.07,1.748l0.048,0.667l4.271,1.412c0.176,0.908,0.416,1.804,0.714,2.673l-2.998,3.362
		l0.292,0.603c0.506,1.043,1.094,2.059,1.746,3.018l0.376,0.553l4.391-0.914c0.609,0.7,1.269,1.359,1.968,1.969l-0.914,4.391
		l0.553,0.376c0.963,0.655,1.979,1.242,3.017,1.745l0.602,0.292l3.363-2.997c0.871,0.299,1.766,0.538,2.673,0.714l1.413,4.271
		l0.667,0.048C23.83,48.972,24.412,49,25,49s1.17-0.028,1.748-0.07l0.667-0.048l1.412-4.271c0.909-0.176,1.804-0.415,2.673-0.714
		l3.363,2.999l0.603-0.293c1.044-0.508,2.06-1.095,3.017-1.746l0.553-0.377l-0.914-4.39c0.7-0.609,1.359-1.269,1.968-1.968
		l4.39,0.913l0.376-0.553c0.653-0.96,1.241-1.975,1.747-3.018l0.292-0.603L43.896,31.5c0.298-0.869,0.538-1.765,0.714-2.673
		l4.271-1.412l0.048-0.667C48.972,26.169,49,25.589,49,25s-0.028-1.169-0.07-1.748L48.882,22.585z M46.976,25.938l-4.135,1.367
		l-0.098,0.599c-0.192,1.187-0.503,2.352-0.924,3.462l-0.215,0.567l2.899,3.252c-0.289,0.552-0.601,1.092-0.936,1.617l-4.247-0.884
		l-0.384,0.469c-0.761,0.93-1.619,1.787-2.549,2.549l-0.469,0.384l0.884,4.248c-0.524,0.333-1.064,0.646-1.616,0.936l-3.252-2.9
		l-0.567,0.216c-1.111,0.421-2.275,0.731-3.461,0.924l-0.599,0.098l-1.367,4.135c-0.622,0.031-1.255,0.031-1.877,0l-1.368-4.135
		l-0.599-0.098c-1.183-0.191-2.347-0.503-3.462-0.925l-0.567-0.214l-3.253,2.898c-0.549-0.287-1.09-0.601-1.616-0.936l0.884-4.247
		l-0.469-0.384c-0.929-0.761-1.787-1.618-2.548-2.549l-0.384-0.47l-4.248,0.885c-0.334-0.525-0.647-1.065-0.936-1.617l2.899-3.252
		l-0.215-0.567c-0.421-1.11-0.732-2.275-0.924-3.462l-0.098-0.599l-4.135-1.367C3.009,25.628,3,25.315,3,25s0.009-0.628,0.024-0.938
		l4.135-1.367l0.098-0.599c0.192-1.188,0.503-2.353,0.924-3.462l0.215-0.567l-2.899-3.252c0.289-0.552,0.601-1.092,0.936-1.617
		l4.247,0.884l0.384-0.469c0.761-0.93,1.619-1.787,2.549-2.549l0.469-0.384l-0.884-4.248c0.524-0.333,1.064-0.646,1.616-0.936
		l3.252,2.899l0.567-0.214c1.115-0.422,2.28-0.733,3.462-0.925l0.599-0.098l1.367-4.135c0.622-0.031,1.255-0.031,1.877,0
		l1.368,4.135l0.599,0.098c1.183,0.191,2.347,0.503,3.462,0.925l0.567,0.214l3.253-2.898c0.549,0.287,1.09,0.601,1.616,0.936
		l-0.884,4.247l0.469,0.384c0.929,0.761,1.787,1.618,2.548,2.549l0.384,0.47l4.248-0.885c0.334,0.525,0.647,1.065,0.936,1.617
		l-2.899,3.252l0.215,0.567c0.421,1.11,0.732,2.275,0.924,3.462l0.098,0.599l4.135,1.367C46.991,24.372,47,24.685,47,25
		S46.991,25.628,46.976,25.938z"/>
	<path d="M25,15c-8.686,0-15.515,9.018-15.801,9.402L8.752,25l0.446,0.598C9.485,25.982,16.314,35,25,35s15.515-9.018,15.801-9.402
		L41.248,25l-0.446-0.598C40.515,24.018,33.686,15,25,15z M25,33c-6.471,0-12.076-6.049-13.715-8c1.64-1.951,7.245-8,13.715-8
		s12.076,6.049,13.715,8C37.076,26.951,31.471,33,25,33z"/>
	<path d="M25,19c-3.309,0-6,2.691-6,6s2.691,6,6,6s6-2.691,6-6S28.309,19,25,19z M25,29c-2.206,0-4-1.794-4-4s1.794-4,4-4
		s4,1.794,4,4S27.206,29,25,29z"/>
</g>
<g>
</g>
</svg>
